<svg width="536" height="536" viewBox="0 0 536 536" fill="none" xmlns="http://www.w3.org/2000/svg">
<path d="M387.608 131.32C391.959 134.062 395.408 138.023 397.524 142.71C400.363 149.359 402.362 156.336 403.473 163.48C401.831 163.523 400.197 163.73 398.596 164.096C398.408 164.096 397.336 164.659 397.149 165.249C396.29 168.22 395.636 171.247 395.192 174.307L341.592 174.629C340.976 174.629 341.056 175.353 341.592 175.379C341.592 175.379 390.529 176.13 395.192 176.157C394.013 185.912 395.005 196.632 401.919 203.546C408.431 209.978 430.568 210.889 438.796 204.752C445.63 199.633 447.318 184.84 446.836 176.157C448.444 176.157 484.677 175.513 488.269 175.379C488.368 175.379 488.464 175.34 488.534 175.269C488.604 175.199 488.644 175.104 488.644 175.004C488.644 174.905 488.604 174.809 488.534 174.739C488.464 174.668 488.368 174.629 488.269 174.629C482.158 174.629 446.755 174.361 446.755 174.361C446.032 166.321 444.075 165.517 444.075 165.142C444.053 164.894 443.953 164.659 443.79 164.471C443.626 164.283 443.407 164.152 443.164 164.096C440.833 163.641 438.464 163.399 436.089 163.373C439.841 157.343 443.057 140.941 448.953 129.953C457.69 113.578 490.573 129.176 490.037 114.704C489.394 98.6241 471.545 89.5925 452.383 98.1149C434.186 106.155 429.443 143.675 429.121 163.266C423.627 163.266 426.28 163.426 418.401 163.266C425.289 154.1 434.052 123.548 432.525 102.188C430.775 88.0134 424.809 74.6902 415.399 63.9449C407.145 54.6989 397.47 50.7861 390.181 58.2097C379.461 68.9297 389.323 80.9093 398.489 93.0497C408.565 106.45 412.344 113.123 413.711 132.205C414.351 142.557 414.154 152.945 413.121 163.266H410.147C412.451 155.735 409.477 139.146 407.306 131.347C404.197 120.332 398.891 109.237 390.475 101.599C380.534 93.015 368.444 87.2989 355.501 85.0633C347.595 83.7233 340.842 84.2325 337.17 86.4301C335.82 87.1324 334.777 88.3093 334.243 89.7343C333.709 91.1593 333.72 92.7316 334.276 94.1485C338.725 108.701 370.188 120.6 387.608 131.32ZM452.919 99.8301C470.849 91.7901 487.357 100.232 487.92 114.811C488.349 125.987 456.109 112.131 447.318 129.256C441.208 141.102 438.501 157.665 434.803 163.4H432.9C435.58 151.581 442.146 125.29 449.864 115.99C459.727 103.957 476.905 110.979 477.656 110.791C477.951 110.791 478.245 110.309 477.361 109.987C466.641 106.101 455.733 106.182 448.444 114.811C439.68 125.156 434.159 150.08 431.855 163.48H429.55C430.273 144.72 435.526 107.468 452.919 99.8301ZM415.078 132.178C414.006 113.257 410.522 106.316 399.936 91.9777C391.253 80.3197 381.953 69.1977 391.547 59.4693C398.087 52.8229 406.609 56.7893 414.006 65.1509C423.063 75.6355 428.775 88.5908 430.407 102.349C432.149 124.057 423.305 155.226 417.007 163.293H415.587C418.454 151.021 420.309 138.535 421.135 125.96C421.751 115.24 421.563 107.79 418.455 98.4633C415.901 91.3623 412.355 84.6584 407.922 78.5509C405.807 75.5384 403.478 72.6814 400.954 70.0017C400.89 69.9235 400.798 69.8739 400.697 69.8639C400.597 69.8538 400.496 69.8841 400.418 69.9481C400.34 70.0121 400.29 70.1045 400.28 70.205C400.27 70.3055 400.301 70.4059 400.365 70.4841C401.036 71.1855 401.662 71.9285 402.241 72.7085C410.602 83.4285 418.857 99.0797 419.5 112.908C420.143 126.737 417.383 149.812 414.837 163.48H414.086C415.27 153.09 415.601 142.621 415.078 132.178ZM442.387 166.375C446.809 170.421 445.415 197.302 437.402 203.305C429.389 209.308 408.512 207.888 402.83 202.394C393.879 193.791 394.79 177.684 397.845 165.731C398.036 165.982 398.297 166.169 398.596 166.267C400.656 166.743 402.755 167.03 404.867 167.125C402.243 176.851 402.702 187.151 406.18 196.605C406.308 196.875 406.538 197.083 406.82 197.184C407.101 197.284 407.411 197.269 407.681 197.141C407.951 197.013 408.159 196.783 408.26 196.502C408.36 196.22 408.345 195.91 408.217 195.64C404.84 188.887 403.929 173.879 405.885 167.312C414.247 167.688 436.625 167.849 442.387 166.375ZM389.323 102.966C407.493 119.046 412.157 154.663 409.343 163.346H407.681C407.301 155.899 406.004 148.527 403.822 141.397C398.033 122.637 388.331 111.113 373.457 102.43C365.687 97.9853 357.372 94.5709 348.721 92.2725C348.621 92.2476 348.516 92.2633 348.428 92.3161C348.34 92.3688 348.277 92.4544 348.252 92.5539C348.227 92.6534 348.243 92.7587 348.296 92.8467C348.348 92.9346 348.434 92.998 348.533 93.0229C358.633 96.225 368.218 100.864 376.995 106.798C386.727 113.277 394.327 122.49 398.837 133.276C403.117 142.811 405.832 152.974 406.877 163.373H404.358C403.366 156.017 401.458 148.814 398.676 141.933C396.503 136.984 392.936 132.775 388.412 129.819C370.697 118.912 340.172 106.959 336.098 93.5589C332.319 81.2577 368.741 84.5273 389.323 102.966ZM157.583 240.959C121.886 228.551 89.8866 223.003 69.9742 217.991C69.7276 217.922 69.4695 217.903 69.2155 217.936C68.9614 217.969 68.7166 218.053 68.4958 218.182C68.2749 218.312 68.0825 218.485 67.9301 218.691C67.7777 218.897 67.6684 219.131 67.6088 219.381C67.5492 219.63 67.5406 219.888 67.5834 220.141C67.6261 220.393 67.7195 220.635 67.8578 220.85C67.9961 221.066 68.1765 221.252 68.3882 221.396C68.5999 221.54 68.8385 221.64 69.0898 221.69C81.9002 224.772 101.25 228.309 122.181 233.16C156.753 241.2 157.503 243.585 158.066 241.924C158.126 241.732 158.109 241.524 158.019 241.344C157.929 241.164 157.773 241.026 157.583 240.959ZM440.457 262.64C440.457 262.577 440.445 262.514 440.421 262.456C440.396 262.397 440.361 262.344 440.316 262.299C440.271 262.254 440.218 262.219 440.16 262.194C440.101 262.17 440.038 262.158 439.975 262.158C416.471 262.158 393.611 267.518 380.667 268.724C380.509 268.737 380.356 268.782 380.216 268.856C380.076 268.929 379.952 269.031 379.852 269.153C379.752 269.276 379.678 269.417 379.634 269.569C379.589 269.721 379.576 269.88 379.595 270.037C379.608 270.196 379.653 270.35 379.726 270.491C379.8 270.632 379.9 270.758 380.022 270.86C380.144 270.962 380.286 271.039 380.438 271.086C380.589 271.134 380.749 271.15 380.908 271.136C390.395 270.198 406.823 266.607 422.207 264.623C439.278 262.64 440.484 263.846 440.457 262.64ZM359.495 318.411C359.518 318.367 359.532 318.319 359.537 318.269C359.541 318.22 359.536 318.17 359.521 318.123C359.506 318.075 359.481 318.031 359.449 317.993C359.417 317.956 359.378 317.924 359.334 317.902L358.664 317.553L358.503 318.357C358.959 318.572 359.307 318.92 359.495 318.411Z" fill="url(#paint0_linear_1117_1939)"/>
<path d="M522.278 325.111C515.39 323.69 498.372 324.253 491.351 324.87C497.14 305.091 503.116 279.31 505.528 265.106C506.402 261.175 506.78 257.151 506.654 253.126C506.566 252.765 506.404 252.426 506.177 252.13C505.951 251.835 505.666 251.59 505.34 251.411C494.62 244.684 382.302 259.451 374.476 263.337C372.144 264.489 370.054 270.305 369.116 272.931C362.175 261.514 362.898 258.808 355.153 240.771C350.327 229.023 344.205 217.85 336.902 207.459C337.09 206.038 344.514 150.589 336.554 135.769C331.194 125.853 302.17 122.369 290.994 121.431C290.994 120.841 289.6 110.711 289.011 106.128C298.444 98.2488 302.411 83.75 292.173 81.3112C284.91 79.596 256.234 74.1288 234.875 79.6496C221.475 83.1336 210.755 90.9592 209.844 106.45C209.484 112.332 209.844 118.236 210.916 124.03C197.06 125.558 173.208 127.836 161.041 132.419C145.39 138.315 151.982 206.789 153.644 212.336C152.733 214.588 151.875 216.866 151.098 218.983C112.104 209.04 24.8164 190.494 20.9304 190.843C19.9182 190.831 18.9187 191.069 18.0209 191.536C17.1232 192.004 16.355 192.686 15.7848 193.523C14.7396 193.764 14.3644 195.238 14.1768 196.203C11.4968 210.46 16.3476 295.604 17.2052 310.049C18.6256 315.248 59.9244 326.531 65.2844 328.005C65.5524 335.054 66.9728 370.054 67.2676 377.237C64.936 376.812 62.6281 376.267 60.3532 375.602C55.5828 373.646 37.3052 391.441 38.9132 389.967C31.9184 396.184 108.03 416.633 114.114 414.918C120.198 413.202 132.231 401.705 130.194 395.3C129.631 394.16 128.681 393.258 127.514 392.754C121.752 389.726 106.503 386 100.151 384.473C100.768 371.502 100.768 350.222 100.741 337.305C108.272 339.181 151.018 349.526 158.736 349.392C159.289 349.4 159.835 349.261 160.317 348.99C162.783 348.641 165.677 348.025 165.918 345.506C165.918 344.755 166.535 338.216 167.312 328.514C186.206 335.724 209.12 335.188 213.194 333.526C214.292 332.996 215.22 332.17 215.874 331.141C216.061 331.382 216.142 331.328 217.562 331.543C222.922 332.4 231.498 333.204 236.322 330.685C243.156 331.784 262.961 333.365 264.435 326.746C264.623 325.861 264.891 324.066 265.159 321.895C284.991 322.967 355.421 322.484 355.689 322.484L354.054 329.854C354.013 329.794 353.957 329.744 353.891 329.712C353.826 329.679 353.753 329.663 353.679 329.667C353.679 329.452 353.679 329.506 353.679 329.667C342.705 328.802 331.693 328.516 320.688 328.809C316.776 328.997 306.458 329.479 306.27 333.285C304.9 336.519 304.7 340.13 305.707 343.496C306.297 345.613 311.282 349.043 313.131 350.303C302.652 349.258 296.542 349.66 293.379 350.785C292.627 350.916 291.926 351.254 291.354 351.759C290.782 352.265 290.362 352.92 290.139 353.65C289.917 354.381 289.902 355.158 290.095 355.897C290.289 356.635 290.683 357.306 291.235 357.834C294.826 362.765 302.304 364.426 303.108 370.885C304.635 383.133 273.494 396.988 262.13 401.839C267.839 394.335 283.142 370.724 275.718 365.016C267.464 358.664 196.685 355.877 190.172 357.539C185.59 358.718 151.902 383.615 152.518 392.379C152.947 398.087 186.099 403.688 192.263 404.76C199.204 405.94 248.73 413.658 254.653 409.879C255.909 409.372 257.05 408.618 258.008 407.66C258.966 406.702 259.721 405.561 260.228 404.305C270.49 400.777 280.368 396.216 289.708 390.69C304.448 381.552 312.702 370.242 298.123 360.728C296.381 359.602 291.61 356.172 292.307 354.242C293.808 349.981 314.524 351.562 314.819 351.562C324.44 357.834 342.852 367.508 353.706 370.322C365.176 373.351 418.776 367.482 431.721 365.847C433.195 371.207 434.615 376.192 435.553 379.247C433.543 379.408 427.808 379.917 426.2 381.176C425.316 381.873 425.342 383.052 426.763 383.856C426.763 392.834 425.664 419.688 428.344 431.802C429.362 436.331 430.542 438.207 435.232 439.842C444.102 442.709 461.147 441.691 470.072 439.306C475.619 437.805 476.343 436.626 477.227 433.678C480.282 423.654 480.122 394.067 479.907 383.562C480.079 383.437 480.218 383.274 480.315 383.086C480.411 382.897 480.461 382.688 480.461 382.476C480.461 382.264 480.411 382.056 480.315 381.867C480.218 381.678 480.079 381.515 479.907 381.391C477.925 380.472 475.79 379.926 473.609 379.783C473.984 376.781 475.994 360.004 476.289 357.056C477.69 356.216 478.94 355.147 479.988 353.894C481.626 351.903 482.691 349.503 483.07 346.953C485.75 343.442 489.609 330.337 490.868 326.049C502.821 326.558 520.348 325.861 521.983 326.049C522.108 326.088 522.242 326.076 522.358 326.016C522.474 325.955 522.56 325.852 522.6 325.727C522.639 325.603 522.627 325.468 522.566 325.352C522.506 325.237 522.402 325.15 522.278 325.111ZM160.022 382.945C161.818 380.962 163.935 378.898 166.186 376.808C175.754 367.964 187.921 359.066 190.574 358.396C197.006 356.735 267.651 361.076 274.834 366.436C276.04 367.348 276.281 369.116 276.04 371.234C275.075 379.649 266.284 393.531 261.166 400.312C255.377 395.327 167.687 383.99 160.022 382.945ZM291.342 123.36C301.58 124.325 330.283 127.622 335.214 136.573C342.182 149.169 337.894 192.129 336.179 206.253C334.678 204.243 333.124 202.34 331.542 200.598C322.457 190.628 306.86 185.617 293.647 183.071C285.16 181.593 276.598 180.582 268 180.042C267.732 180.042 268.16 180.444 266.043 176.103C262.881 169.59 262.693 169.698 263.015 169.51C266.529 169.323 270.009 168.729 273.386 167.741C282.445 165.061 287.832 159.701 290.378 146.676C291.76 138.957 292.049 131.08 291.235 123.28L291.342 123.36ZM268.268 180.873C269.956 181.114 270.412 181.088 270.546 181.168C270.546 181.838 276.415 213.328 256.315 214.775C239.699 216.142 228.764 192.826 222.868 177.255C225.012 176.907 226.728 176.666 227.88 176.505C228.443 188.726 246.024 210.889 255.779 209.335C266.74 207.539 272.127 190.87 268.268 180.873ZM228.255 131.561C228.495 130.366 229.031 129.249 229.812 128.313C230.594 127.377 231.597 126.651 232.731 126.201C238.091 124.888 238.091 131.561 242.352 131.186C247.712 130.838 241.736 118.402 246.345 110.818C251.357 102.456 271.671 119.367 288.1 106.825C290.083 120.948 292.254 131.936 289.225 146.355C286.545 159.004 281.56 163.668 272.958 166.187C269.422 167.001 265.843 167.609 262.238 168.009C261.95 168.172 261.708 168.404 261.535 168.686C261.361 168.967 261.262 169.287 261.246 169.617C261.246 170.555 263.926 175.352 266.418 180.954C270.144 189.744 265.293 205.717 255.484 207.244C248.516 208.343 234.875 192.719 230.989 181.677C229.274 176.8 229.783 176.612 232.811 157.557C237.072 157.852 237.957 149.517 238.171 145.202C238.215 144.288 237.898 143.392 237.287 142.71C235.357 140.593 233.776 143.058 230.024 138.368C229.205 137.459 228.617 136.365 228.309 135.181C228.002 133.996 227.983 132.755 228.255 131.561ZM211.291 125.96C214.882 142.362 224.316 153.752 230.801 156.914C229.622 164.445 228.282 172.833 227.934 175.379C212.469 176.155 197.218 179.319 182.722 184.759C176.285 187.224 170.285 190.708 164.954 195.077C162.006 179.801 169.59 149.946 168.652 141.477C168.223 137.886 167.205 134.08 163.694 133.303C175.7 129.524 197.944 127.38 211.291 125.96ZM162.086 134C162.726 134.022 163.356 134.173 163.936 134.445C164.517 134.717 165.036 135.103 165.463 135.581C166.671 137.404 167.28 139.559 167.205 141.745C167.794 149.785 159.46 179.426 164.15 195.854C159.632 200.091 156.211 205.36 154.18 211.211C152.036 198.159 148.472 138.744 162.086 134ZM65.7936 256.101C66.008 254.841 68.3128 254.278 69.5724 254.064C78.872 252.536 98.1948 257.843 97.766 264.302C97.1228 273.869 100.071 389.806 97.5516 394.067C94.55 399.186 78.1484 396.345 71.6092 391.789C68.6344 389.726 68.688 387.957 68.7684 388.305C66.4904 297.051 65.4184 258.191 65.7936 256.101ZM127.916 396.184C129.283 400.74 118.536 411.219 113.551 412.613C108.566 414.006 35.0808 394.978 39.878 390.637C37.6536 392.647 51.8308 379.595 58.0752 377.505C58.573 377.257 59.1417 377.19 59.6832 377.317C60.4068 377.639 63.2476 378.362 67.348 379.327C67.5892 384.982 67.75 388.332 67.75 388.332C69.3312 396.211 94.55 402.161 98.9452 394.898C99.6181 392.324 99.9781 389.679 100.017 387.019C104.118 388.037 125.156 393.156 127.916 396.184ZM158.736 347.114C151.688 347.382 107.816 337.09 100.741 335.429C100.607 304.019 99.9636 268.804 100.285 264.462C100.928 254.6 75.8436 249.24 66.9996 252.134C66.1232 252.327 65.3178 252.76 64.6739 253.385C64.03 254.01 63.5732 254.802 63.3548 255.672C62.7652 259.236 65.07 322.672 65.204 326.478C60.8356 325.298 19.912 314.391 18.2236 310.022C17.768 300.16 13.3996 204.806 16.5084 195.774C31.0876 199.419 155.6 224.53 164.364 230.614C166.562 236.644 161.55 338.591 158.736 347.114ZM165.034 345.532C165.034 347.328 162.649 347.944 160.88 348.212C163.774 341.271 169.536 235.652 166.588 229.435C163.64 223.217 29.1848 197.087 16.6156 193.576C17.1746 192.972 17.8552 192.492 18.6126 192.169C19.3701 191.845 20.1874 191.686 21.0108 191.7C24.736 191.432 162.22 222.145 170.206 226.54C171.546 230.4 170.206 257.28 170.019 261.702C169.536 272.368 165.141 344.085 165.034 345.532ZM237.394 327.389C234.258 331.57 223.136 331.06 217.91 330.578H216.624C219.008 325.784 220.36 320.544 220.59 315.195C223.27 314.444 233.079 312.166 234.58 314.578C235.036 315.275 233.588 316.106 232.838 316.508C230.856 317.427 228.781 318.128 226.647 318.598C226.331 318.659 226.052 318.842 225.871 319.109C225.69 319.375 225.622 319.703 225.682 320.019C225.743 320.335 225.926 320.615 226.193 320.795C226.459 320.976 226.786 321.044 227.103 320.984C229.783 320.608 237.099 319.59 239.699 320.474C238.628 321.961 237.09 323.046 235.33 323.556C232.825 323.539 230.322 323.746 227.853 324.173C227.497 324.24 227.179 324.436 226.958 324.723C226.738 325.01 226.63 325.368 226.657 325.729C226.683 326.09 226.842 326.429 227.102 326.681C227.362 326.932 227.706 327.08 228.068 327.094C230.79 327.173 233.506 326.802 236.108 325.995C236.785 326.023 237.451 326.187 238.064 326.478C237.892 326.838 237.635 327.151 237.314 327.389H237.394ZM262.747 326.451C262.633 326.868 262.421 327.252 262.127 327.57C261.832 327.887 261.466 328.128 261.058 328.273C256.1 330.953 243.585 330.471 238.01 329.908C240.074 328.327 241.28 325.754 239.19 324.334C243.317 321.654 242.888 318.786 240.181 317.955C238.428 317.53 236.616 317.404 234.821 317.58C236.51 316.32 237.126 314.9 236.108 313.372C234.634 311.282 230.748 311.55 228.336 311.952C227.188 301.342 226.597 290.679 226.567 280.006C233.722 285.206 257.44 285.366 265.722 280.435C266.124 289.44 263.417 322.538 262.64 326.451H262.747ZM239.752 320.367C239.752 320.367 239.672 320.421 239.672 320.367H239.752ZM297.265 320.957C302.223 306.458 302.92 275.745 302.625 260.389C306.779 267.062 329.425 299.061 329.586 299.329C330.136 300.171 330.784 300.945 331.516 301.634C336.916 306.569 342.977 310.727 349.525 313.989C356.52 317.687 357.083 317.5 357.029 317.794L356.091 321.814C355.636 321.788 301.366 320.957 297.185 320.957H297.265ZM308.816 332.99C314.578 328.97 353.76 330.792 354.188 330.524V330.819C350.436 348.775 348.989 355.261 348.534 357.619C348.775 356.574 350.249 349.579 351.937 341.834C353.116 336.152 354.617 329.399 356.145 322.243C356.842 318.974 357.297 316.883 357.324 316.722C349.981 312.836 338.778 306.136 332.909 300.214C331.435 298.713 302.947 259.236 302.679 258.781C302.411 258.325 302.411 246.56 302.116 246.024C302.06 245.963 301.986 245.921 301.905 245.904C301.824 245.886 301.74 245.894 301.664 245.926C301.588 245.959 301.523 246.014 301.479 246.084C301.436 246.154 301.415 246.236 301.419 246.319C301.151 246.319 301.419 303.617 296.461 320.876L265.588 321.171C265.775 319.67 265.963 317.928 266.177 316.052C278.612 317.634 284.267 303.992 280.971 292.87C279.014 286.76 273.976 285.822 268.214 288.77C268.482 285.202 268.482 281.618 268.214 278.05C268.463 277.434 268.506 276.754 268.337 276.112C268.167 275.47 267.796 274.899 267.276 274.486C263.283 270.734 252.107 270.332 246.667 270.332C241.226 270.332 230.024 270.76 226.058 274.486C225.71 274.754 225.434 275.104 225.254 275.504C223.217 279.176 227.13 311.362 227.612 312.059C225.278 312.524 222.977 313.142 220.724 313.908V309.62C220.564 300.267 190.655 295.068 189.636 289.735C189.288 287.912 188.725 283.839 188.082 279.015C184.464 252.536 185 253.555 184.41 253.555C184.311 253.555 184.215 253.594 184.145 253.665C184.075 253.735 184.035 253.831 184.035 253.93C184.035 254.654 186.93 283.812 187.975 290.003C189.02 296.194 218.714 302.197 218.848 309.62C218.848 315.409 217.562 329.774 212.55 331.838C209.522 333.124 186.099 334.303 167.419 327.737C167.821 322.538 175.272 229.462 171.68 225.334C170.314 223.753 154.26 219.733 152.224 219.224C160.264 201 166.213 185.992 222.118 177.228C223.671 182.432 225.569 187.527 227.8 192.478C233.481 204.618 243.102 217.723 256.422 216.598C271.725 215.284 274.19 198.695 271.752 183.553C271.591 182.481 271.43 181.784 271.296 181.168C278.649 181.904 285.958 183.031 293.192 184.545C305.814 187.225 321.332 192.317 329.988 201.911C339.341 212.202 347.515 228.095 353.25 240.798C361.505 259.076 361.451 263.792 368.553 274.325C363.559 290.083 359.373 306.085 356.011 322.27C354.939 327.282 353.331 334.92 351.803 341.861C349.579 352.581 348.239 359.361 348.373 357.941C348.132 359.388 348.373 359.334 348.373 359.683C339.636 355.786 331.206 351.235 323.154 346.068C320.34 344.192 305.975 335 308.816 332.936V332.99ZM268 294.237C268 292.844 268.16 291.557 268.214 290.217C273.065 288.261 277.38 288.556 278.693 293.621C281.373 302.813 277.138 315.061 266.338 315.061C266.338 313.774 266.794 310.103 266.847 309.701C279.175 311.362 279.095 288.797 268 294.237ZM266.954 308.548C267.33 304.314 267.651 299.838 267.919 295.631C269.202 295.234 270.576 295.234 271.859 295.631C275.048 296.783 274.539 307.852 266.82 308.548H266.954ZM354.617 368.018C344.305 364.644 334.328 360.32 324.816 355.1C322.136 353.68 308.253 346.122 307.315 343.201C306.505 340.593 306.421 337.813 307.074 335.161C310.665 342.156 333.445 353.921 340.762 357.378C344.111 358.959 347.568 360.302 351.106 361.398C363.488 365.82 416.606 358.718 429.657 357.11C429.818 357.673 430.944 361.988 431.372 363.542C420.009 364.855 365.284 370.832 354.483 368.018H354.617ZM474.36 435.42C470.447 438.743 446.97 441.53 435.902 438.1C431.882 436.84 431.078 435.554 430.113 431.48C429.234 427.06 428.678 422.581 428.451 418.08C433.945 421.457 444.022 422.314 450.481 422.502C460.209 422.716 469.777 422.502 477.602 418.08C477.442 420.921 476.53 433.57 474.36 435.42ZM477.683 417.035C472.397 419.297 466.709 420.473 460.96 420.492C453.295 420.867 435.339 420.814 428.398 417.115C428.103 412.077 427.915 406.69 427.835 401.678C430.515 404.894 444.799 406.342 450.508 406.529C460.692 406.744 470.152 406.529 478.299 401.705C478.299 401.437 478.219 407.789 477.71 417.035H477.683ZM478.299 400.767C464.899 407.521 431.64 404.466 427.808 400.767V384.285C436.33 387.314 470.018 387.099 478.46 384.285C478.406 387.367 478.433 393.638 478.326 400.767H478.299ZM472.939 382.731C473.035 382.758 473.138 382.748 473.227 382.703C473.316 382.659 473.385 382.583 473.422 382.49C473.422 382.49 473.422 382.007 473.582 381.15C475.31 381.387 477.013 381.773 478.674 382.302C472.805 384.982 437.483 385.223 428.666 382.624C428.606 382.605 428.553 382.568 428.516 382.517C428.479 382.466 428.459 382.405 428.459 382.342C428.459 382.279 428.479 382.218 428.516 382.168C428.553 382.117 428.606 382.08 428.666 382.061C431.122 381.393 433.634 380.945 436.17 380.721C436.347 381.466 436.617 382.187 436.974 382.865C437.188 383.079 437.536 383.106 437.51 382.57C437.483 382.034 428.692 347.328 427.352 339.69C428.723 340.147 430.184 340.262 431.609 340.023C433.034 339.785 434.379 339.201 435.526 338.323C438.474 346.578 447.881 383.722 448.444 383.722C448.546 383.716 448.641 383.67 448.711 383.596C448.781 383.521 448.819 383.423 448.819 383.32L448.042 379.702H451.74C451.74 380.212 452.035 382.811 452.062 382.999C452.089 383.186 452.866 383.642 452.812 382.65C452.812 380.238 450.561 340.28 450.508 339.556C450.893 339.37 451.297 339.226 451.714 339.127C452.008 340.574 461.442 378.791 462.166 381.766C462.166 382.034 462.166 382.49 462.675 382.382C463.184 382.275 462.97 381.793 462.675 380.051L466.775 380.346V380.801C466.775 381.23 467.445 381.123 467.526 380.801C467.526 381.096 472.51 329.667 472.886 325.566C473.592 326.102 474.404 326.481 475.268 326.68C476.132 326.879 477.028 326.892 477.897 326.719C477.844 327.121 472.35 382.543 472.912 382.731H472.939ZM448.819 329.452C448.501 326.875 447.375 324.464 445.603 322.565C449.275 323.664 450.052 324.468 450.963 326.987C451.688 328.994 451.882 331.154 451.526 333.258C451.163 334.583 451.163 335.98 451.526 337.305C451.087 337.406 450.657 337.54 450.24 337.707C448.578 332.963 444.88 333.017 444.88 328.246C444.874 326.522 444.622 324.807 444.129 323.154C445.427 325.506 446.85 327.788 448.39 329.988C448.658 330.337 449.168 329.828 448.846 329.452H448.819ZM450.159 363.274C450.293 364.587 451.338 375.977 451.606 378.872H447.774C446.97 375.254 445.764 369.894 444.397 364.158L450.159 363.274ZM449.998 361.21L443.888 362.014C443.352 359.79 442.789 357.539 442.226 355.314C444.692 354.966 447.104 354.591 449.436 354.216C449.543 355.368 449.918 360.031 450.025 361.21H449.998ZM458.333 359.978C457.904 357.941 456.859 353.331 456.779 353.063C459.11 352.661 467.043 351.294 468.678 350.973C468.678 352.125 468.222 357.003 468.115 358.236C465.516 358.798 462.192 359.388 458.28 359.978H458.333ZM468.008 359.978C467.526 366.919 466.775 378.523 466.748 379.166C465.355 379.166 463.881 379.113 462.326 379.006C461.683 375.763 458.923 362.765 458.735 361.88C462.353 361.157 465.462 360.514 468.035 359.897L468.008 359.978ZM473.127 323.342C473.454 319.946 473.982 316.572 474.708 313.238C475.423 313.024 476.177 312.973 476.915 313.089C477.652 313.205 478.354 313.485 478.969 313.908C478.809 317.277 478.451 320.632 477.897 323.958C477.656 324.896 477.602 325.138 476.986 325.218C475.78 325.298 473.341 324.28 473.154 323.262L473.127 323.342ZM476.638 355.288C476.879 353.304 477.12 351.294 477.334 349.284C478.922 348.951 480.481 348.494 481.998 347.918C481.153 350.909 479.26 353.497 476.664 355.207L476.638 355.288ZM481.113 345.693C479.982 346.143 478.817 346.502 477.629 346.765C478.112 342.263 480.952 316.052 480.952 314.203C480.952 311.523 476.182 310.532 473.716 311.523C472.886 311.898 472.644 313.48 472.403 314.873C471.063 322.35 469.482 341.003 468.866 348.588L456.296 350.892C453.161 337.224 453.429 337.975 453.08 337.626C452.841 337.398 452.526 337.265 452.196 337.251C451.948 336.058 452.013 334.821 452.384 333.66C452.938 331.342 452.864 328.918 452.169 326.638C451.812 324.981 450.858 323.512 449.489 322.511C447.308 321.355 444.956 320.559 442.521 320.153C442.393 320.118 442.259 320.115 442.13 320.143C442.001 320.171 441.88 320.229 441.778 320.313C441.676 320.397 441.595 320.504 441.542 320.625C441.49 320.746 441.467 320.879 441.476 321.01C441.533 321.238 441.605 321.462 441.69 321.68C443.781 326.665 442.334 328.943 443.781 331.918C445.228 334.893 447.667 335.348 448.551 338.779C448.551 339.047 449.302 351.428 449.328 352.179L441.744 353.385C441.208 351.348 437.536 336.849 436.089 335.429C433.409 332.749 425.744 335.75 425.369 338.109C425.128 339.449 428.8 353.814 429.148 355.18C415.346 357.19 400.713 359.013 387.769 360.219C382.114 360.728 347.569 363.89 349.498 358.236C352.178 345.854 357.538 323.128 358.61 318.357V317.982C358.61 317.58 358.798 317.178 358.61 318.357C358.61 317.955 358.771 317.714 358.825 317.58L365.525 291.664C366.409 288.475 372.493 266.794 375.575 265.266C382.409 261.89 494.728 247.364 504.215 253.716C505.823 260.603 486.071 342.424 481.14 345.72L481.113 345.693Z" fill="url(#paint1_linear_1117_1939)"/>
<path d="M264.007 130.141V128.077C264.007 127.743 263.874 127.423 263.638 127.187C263.401 126.95 263.081 126.818 262.747 126.818C262.41 126.818 262.087 126.95 261.847 127.185C261.606 127.421 261.467 127.741 261.46 128.077V130.489C261.52 130.808 261.7 131.092 261.963 131.281C262.226 131.471 262.552 131.551 262.873 131.506C263.194 131.461 263.486 131.294 263.687 131.04C263.888 130.786 263.983 130.464 263.953 130.141H264.007ZM435.285 295.068C434.508 294.318 433.409 293.433 432.391 293.755C430.702 294.291 429.014 298.579 428.29 300.348C426.258 305.626 424.645 311.057 423.466 316.589C424.565 319.429 443.111 315.704 445.63 314.471C446.434 314.096 446.327 313.131 446.059 312.274C443.407 306.001 439.77 300.193 435.285 295.068ZM424.19 316.24C424.672 314.016 430.783 296.971 432.873 295.417C436.116 297.266 442.629 308.629 444.37 312.917C441.958 313.882 425.584 318.036 424.19 316.24ZM205.984 373.083C205.716 373.271 199.874 376.969 199.606 377.237C199.543 377.263 199.488 377.308 199.45 377.365C199.412 377.423 199.392 377.49 199.392 377.559C199.392 377.627 199.412 377.695 199.45 377.752C199.488 377.809 199.543 377.854 199.606 377.88C201.107 378.309 206.118 378.872 207.646 379.033C244.309 369.84 244.55 369.84 244.094 369.84C244.341 369.807 244.565 369.679 244.719 369.485C244.874 369.29 244.948 369.043 244.925 368.795C244.925 368.339 244.201 365.177 243.987 364.212L205.984 373.083ZM277.005 118.939C277.755 118.939 279.229 119.287 279.524 119.314C281.15 119.483 282.763 119.769 284.348 120.171L286.76 120.6C286.851 120.623 286.948 120.613 287.033 120.571C287.118 120.53 287.186 120.46 287.224 120.373C287.263 120.287 287.269 120.19 287.243 120.099C287.217 120.008 287.16 119.929 287.081 119.877C285.683 118.692 283.987 117.913 282.177 117.625C280.385 117.241 278.519 117.4 276.817 118.081C276.761 118.093 276.707 118.117 276.66 118.15C276.613 118.182 276.572 118.224 276.541 118.273C276.51 118.321 276.489 118.376 276.479 118.432C276.468 118.489 276.47 118.547 276.482 118.604C276.494 118.66 276.518 118.713 276.55 118.761C276.583 118.808 276.625 118.848 276.674 118.879C276.722 118.91 276.777 118.932 276.833 118.942C276.89 118.952 276.948 118.951 277.005 118.939ZM255.779 121.297C256.503 121.136 258.057 120.895 258.459 120.841C260.083 120.487 261.731 120.254 263.39 120.145L266.07 119.85C266.177 119.85 266.279 119.807 266.354 119.732C266.43 119.657 266.472 119.554 266.472 119.448C266.472 119.341 266.43 119.239 266.354 119.164C266.279 119.088 266.177 119.046 266.07 119.046C264.343 118.313 262.447 118.069 260.59 118.338C258.734 118.607 256.986 119.38 255.538 120.573C255.474 120.573 255.411 120.589 255.355 120.618C255.298 120.647 255.249 120.689 255.212 120.74C255.174 120.792 255.15 120.852 255.14 120.915C255.131 120.978 255.136 121.042 255.156 121.102C255.176 121.163 255.211 121.218 255.256 121.262C255.302 121.307 255.357 121.34 255.418 121.359C255.479 121.378 255.543 121.382 255.606 121.372C255.669 121.361 255.728 121.335 255.779 121.297ZM282.579 125.96C282.245 125.96 281.924 126.093 281.688 126.329C281.452 126.565 281.319 126.886 281.319 127.22V129.632C281.366 129.966 281.543 130.268 281.811 130.471C282.08 130.675 282.419 130.763 282.753 130.717C283.087 130.671 283.389 130.494 283.593 130.225C283.796 129.956 283.885 129.617 283.839 129.283V127.22C283.842 127.053 283.812 126.888 283.75 126.733C283.688 126.579 283.595 126.439 283.478 126.321C283.36 126.203 283.22 126.111 283.065 126.049C282.911 125.987 282.745 125.957 282.579 125.96ZM74.5841 358.638C78.3093 359.844 86.9925 363.087 90.9857 362.604C91.4681 362.604 92.0041 362.122 92.3525 361.264C95.0325 355.234 93.1029 324.575 92.1381 318.652C91.4681 314.391 76.0581 309.111 72.3329 312.14C69.9209 314.096 71.1269 336.796 71.3949 339.958C72.0917 347.596 71.3681 357.593 74.5841 358.638ZM73.5389 313.56C76.4333 311.47 89.8601 316.428 90.2889 318.92C90.9589 323.128 93.4513 358.504 90.7713 361.264C87.3141 361.773 78.1485 358.959 74.6913 357.887C72.2525 357.083 73.0833 346.417 72.6813 339.824C72.4937 335.375 72.1989 317.714 73.5389 313.56ZM263.98 146.194C263.913 146.161 263.84 146.144 263.765 146.144C263.691 146.144 263.618 146.161 263.551 146.194C262.881 146.435 262.479 147.186 262.372 148.285C262.285 151.124 263.238 153.897 265.052 156.083C265.477 156.664 266.014 157.153 266.632 157.521C267.25 157.889 267.936 158.129 268.649 158.226C269.362 158.324 270.087 158.277 270.781 158.088C271.475 157.9 272.124 157.573 272.69 157.129C274.305 155.799 275.574 154.098 276.388 152.171C276.461 152.02 276.5 151.855 276.5 151.688C276.5 151.521 276.461 151.356 276.388 151.206C275.557 149.919 273.574 151.742 263.98 146.194ZM263.739 147.105C266.65 149.585 270.059 151.412 273.735 152.465C268 162.221 262.238 149.062 263.739 147.105ZM270.305 140.807C272.02 141.129 276.763 140.539 277.782 138.797C278.291 137.967 277.782 137.699 276.656 134.268C275.642 131.288 274.452 128.371 273.092 125.531C272.609 124.781 271.993 125.531 272.341 125.987C273.086 130.096 274.272 134.112 275.879 137.967C273.939 138.874 271.953 139.679 269.929 140.379C269.926 140.431 269.932 140.484 269.949 140.535C269.966 140.585 269.993 140.631 270.028 140.671C270.063 140.711 270.105 140.743 270.153 140.767C270.2 140.79 270.252 140.804 270.305 140.807ZM369.143 419.501C379.193 413.122 371.367 407.253 364.721 410.04C363.086 407.065 362.711 406.824 359.361 406.985C341.968 407.869 263.417 426.04 262.667 426.335C258.7 427.969 268.777 451.634 272.77 454.743C273.681 455.439 273.387 455.573 283.222 453.644C283.865 459.486 286.411 469.724 292.361 470.045C295.134 469.537 297.834 468.691 300.401 467.526C305.371 472.471 310.662 477.081 316.24 481.328C322.404 485.455 361.8 439.44 367.696 434.08C369.384 433.517 370.885 433.142 370.697 428.961C375.789 428.023 379.729 424.887 377.022 420.385C375.2 417.651 372.037 418.08 369.143 419.501ZM370.081 412.211C371.18 412.613 371.742 413.042 371.394 414.141C370.672 415.82 369.614 417.334 368.285 418.589C367.574 416.41 366.742 414.271 365.793 412.184C367.18 411.684 368.7 411.694 370.081 412.211ZM341.566 411.327C342.557 416.017 343.227 418.563 344.487 422.877L325.915 426.388C324.846 422.511 323.603 418.683 322.189 414.918C325.7 414.248 338.698 411.809 341.566 411.327ZM314.096 447.105C315.079 450.472 316.531 453.684 318.41 456.645C313.265 459.138 308.414 461.416 304.287 463.292C302.806 458.797 300.724 454.524 298.096 450.589L314.096 447.105ZM306.511 447.105C305.605 442.448 304.46 437.841 303.081 433.303L324.521 428.666C325.69 433.206 327.104 437.679 328.755 442.066C321.385 443.621 313.694 445.363 306.511 446.997V447.105ZM315.436 447.239C315.141 446.81 313.318 447.453 333.043 442.924C333.392 444.915 334.129 446.819 335.214 448.525L319.509 456.217C318.577 453.015 317.206 449.957 315.436 447.131V447.239ZM334.196 442.629C344.38 440.271 353.733 438.019 360.192 436.304L336.527 447.855C336.089 445.952 335.308 444.145 334.223 442.522L334.196 442.629ZM329.667 441.798C328.807 437.226 327.715 432.699 326.397 428.237L344.701 423.735C344.701 423.869 345.934 427.996 346.497 429.765C346.765 430.569 349.043 437.055 349.177 437.162C343.629 438.395 330.095 441.584 329.64 441.691L329.667 441.798ZM321.385 415.186C322.27 420.063 323.1 423.226 324.065 426.871L302.625 431.587C301.366 427.326 300.508 424.539 298.659 419.715C302.84 418.75 318.169 415.695 321.412 415.079L321.385 415.186ZM297.775 419.876C298.82 425.236 299.597 428.05 300.722 432.016C298.927 432.418 284.267 436.09 284.267 436.09C283.731 436.09 283.946 436.921 284.482 436.813C284.482 436.813 300.374 433.865 301.178 433.678C301.178 433.678 302.331 438.287 305.627 447.319L288.341 451.178C285.868 441.83 282.761 432.661 279.041 423.735L297.775 419.876ZM273.52 453.831C269.447 450.776 260.12 428.264 262.934 427.031C262.934 427.031 269.072 425.691 278.291 423.762C280.589 433.154 283.654 442.342 287.456 451.232C273.36 454.394 273.976 454.073 273.547 453.724L273.52 453.831ZM292.28 468.089C287.751 468.089 285.044 458.307 284.24 453.858C284.24 453.349 282.82 453.858 296.837 450.937C297.533 450.803 296.434 450.615 299.785 457.583C300.745 459.773 301.931 461.856 303.322 463.801C299.797 465.489 296.14 466.887 292.388 467.982L292.28 468.089ZM317.258 479.559C311.809 475.741 306.575 471.626 301.58 467.231C306.19 465.329 311.416 462.89 315.918 460.746C319.443 464.844 323.437 468.513 327.817 471.68C325.995 473.235 319.804 478.97 317.365 479.452L317.258 479.559ZM328.595 470.876C325.055 466.925 321.091 463.375 316.776 460.29L333.606 452.009C335.951 454.416 338.665 456.434 341.646 457.985C337.431 462.347 333.115 466.609 328.702 470.769L328.595 470.876ZM342.557 457.128C340.322 454.846 337.778 452.888 335 451.312C346.524 445.497 353.143 441.959 363.89 436.009C359.12 440.217 347.006 452.599 342.664 457.021L342.557 457.128ZM368.125 431.936C366.972 432.767 351.187 436.626 349.82 436.947C348.113 428.18 345.611 419.586 342.343 411.273C347.542 410.389 357.833 408.593 361.666 409.022C362.184 409.632 362.633 410.297 363.006 411.005C361.177 412.248 359.663 413.899 358.584 415.829C358.316 416.499 359.012 416.847 359.361 416.526C360.702 415.107 362.268 413.921 363.997 413.015C365.213 415.528 366.269 418.115 367.16 420.76C364.778 422.389 362.632 424.336 360.781 426.549C360.433 426.978 360.54 427.299 360.781 427.433C361.424 427.809 361.478 426.844 367.803 423.092C368.442 425.262 368.802 427.504 368.875 429.765C368.741 430.247 368.66 431.48 368.232 431.829L368.125 431.936ZM374.798 424.753C373.601 426.124 372.094 427.19 370.403 427.862C370.156 425.952 369.771 424.062 369.25 422.207C370.992 421.323 373.699 420.197 374.61 421.832C374.953 422.208 375.167 422.684 375.22 423.191C375.273 423.697 375.163 424.207 374.905 424.646L374.798 424.753Z" fill="url(#paint2_linear_1117_1939)"/>
<defs>
<linearGradient id="paint0_linear_1117_1939" x1="67.5566" y1="186.497" x2="490.044" y2="186.497" gradientUnits="userSpaceOnUse">
<stop stop-color="#3A608D"/>
<stop offset="0.5" stop-color="#3F7B8C"/>
<stop offset="1" stop-color="#1B2D4D"/>
</linearGradient>
<linearGradient id="paint1_linear_1117_1939" x1="13.3779" y1="259.414" x2="522.622" y2="259.414" gradientUnits="userSpaceOnUse">
<stop stop-color="#3A608D"/>
<stop offset="0.5" stop-color="#3F7B8C"/>
<stop offset="1" stop-color="#1B2D4D"/>
</linearGradient>
<linearGradient id="paint2_linear_1117_1939" x1="70.8564" y1="299.505" x2="446.256" y2="299.505" gradientUnits="userSpaceOnUse">
<stop stop-color="#3A608D"/>
<stop offset="0.5" stop-color="#3F7B8C"/>
<stop offset="1" stop-color="#1B2D4D"/>
</linearGradient>
</defs>
</svg>
