<svg width="536" height="536" viewBox="0 0 536 536" fill="none" xmlns="http://www.w3.org/2000/svg">
<path d="M486.554 137.135C486.26 135.125 486.045 134.455 483.526 133.303C472.994 128.934 433.544 128.318 422.154 128.184C422.194 125.995 421.688 123.83 420.68 121.886C416.419 117.571 389.163 118.08 383.374 116.901C382.838 116.901 382.892 116.901 382.758 116.419C381.391 113.069 381.043 101.84 378.818 97.9268C374.664 90.5836 358.906 86.376 349.177 93.3172C344.159 91.8045 338.796 91.8794 333.821 93.5316C331.139 94.623 328.728 96.2869 326.756 98.407C324.784 100.527 323.299 103.052 322.404 105.806C320.89 110.871 320.069 116.118 319.966 121.404C315.008 123.038 289.172 124.968 286.198 128.827C285.463 129.953 284.979 131.223 284.777 132.552C266.553 133.919 268.51 134.16 268.295 133.517C261.488 112.318 236.966 91.1196 236.966 91.1196C236.403 90.6104 235.84 91.1196 234.608 91.6556C233.206 87.6724 231.41 83.8389 229.248 80.212C229.299 79.3177 228.996 78.4391 228.404 77.7668C227.812 77.0946 226.979 76.6828 226.085 76.6208C228.497 73.7532 224.477 69.1704 218.956 72.9492C218.018 71.5824 217.027 70.2692 216.008 68.822C216.615 68.4348 217.165 67.9659 217.643 67.4284C218.206 66.41 214.963 67.4284 234.232 63.8104C237.797 63.0868 253.528 59.8976 255.672 59.2008C255.915 59.1712 256.141 59.0594 256.312 58.8839C256.482 58.7084 256.588 58.4797 256.61 58.236C260.362 56.1724 256.182 45.0236 254.574 41.0572C261.247 34.5984 259.934 27.6572 254.279 25.6472C251.673 24.8495 248.908 24.7205 246.239 25.272C243.704 20.8931 240.258 17.1095 236.135 14.1768C233.107 12.5152 230.775 13.5336 230.078 15.1148C229.382 16.696 203.6 47.2748 203.278 47.4624C198.401 48.856 191.192 51.9112 188.806 56.3868C183.286 66.8656 194.006 79.7296 204.458 75.656L206.36 75.0396C207.486 76.6744 208.88 78.5236 210.112 80.1584C209.878 80.5874 209.681 81.0357 209.523 81.4984C209.228 82.4632 207.272 85.036 208.558 87.6088C209.844 90.1816 218.742 96.4528 221.422 98.1412L220.859 98.436C220.673 98.5134 220.524 98.6601 220.444 98.8451C220.364 99.0301 220.359 99.2389 220.43 99.4276C221.985 103.984 230.373 125.799 226.3 124.941C220.35 123.655 205.637 117.893 187.734 112.05C177.899 108.834 171.306 105.726 162.542 103.689C161.899 99.4812 161.176 98.1412 160.532 94.7376C163.425 93.5044 165.874 91.4199 167.554 88.7612C168.519 87.1532 167.393 87.7964 169.43 88.1984C170.091 88.3953 170.803 88.3297 171.417 88.0152C172.031 87.7007 172.5 87.1616 172.726 86.51C175.138 87.3408 177.443 85.974 176.907 83.16C178.622 83.16 181.785 83.16 182.267 80.1852C182.991 76.594 178.542 75.3344 177.416 73.9944C175.389 71.4759 173.927 68.5512 173.128 65.4184C170.448 56.8424 168.358 42.3704 163.641 36.8764C162.165 35.2433 160.349 33.9524 158.322 33.0941C156.294 32.2358 154.104 31.8308 151.903 31.9074C149.703 31.984 147.546 32.5403 145.583 33.5375C143.62 34.5346 141.899 35.9486 140.54 37.6804C138.834 36.7143 137.039 35.9155 135.18 35.2952C132.901 34.9234 130.57 35.0267 128.333 35.5986C126.096 36.1705 124.002 37.1986 122.182 38.6184C113.391 46.0956 117.92 58.9596 111.998 72.7616C110.148 77.0496 100.929 86.2956 107.683 89.8064C108.38 90.0213 109.122 90.0426 109.83 89.8679C110.538 89.6933 111.186 89.3292 111.703 88.8148C111.769 89.5079 111.969 90.1815 112.292 90.798C113.096 91.7601 114.137 92.496 115.312 92.9331C116.487 93.3702 117.755 93.4933 118.992 93.2904C119.759 93.0367 120.451 92.5944 121.002 92.004C121.182 92.5605 121.506 93.0597 121.94 93.4512C124.138 95.1932 126.818 95.0324 129.123 91.5484C129.481 92.0544 129.977 92.4471 130.552 92.6798C131.127 92.9126 131.756 92.9756 132.366 92.8616V101.732C130.892 101.92 129.418 102.108 127.944 102.376C127.82 102.351 127.692 102.351 127.568 102.376C111.397 104.75 96.2404 111.695 83.8843 122.395C71.5109 132.919 61.3689 145.813 54.0559 160.317C47.5971 174.521 48.2939 179.774 50.5183 189.797C51.8876 195.561 54.5142 200.952 58.2099 205.582C62.2835 211.103 68.5815 217.75 77.6935 227.585C79.8643 229.917 82.5979 232.945 84.9027 235.25C83.6699 240.878 74.9599 274.887 75.4691 281.775C75.4691 282.472 76.1123 283.302 77.5059 283.892C82.0707 285.255 86.7888 286.038 91.5491 286.224C89.9679 343.12 94.0147 417.758 99.0263 473.154C98.8217 473.224 98.6376 473.343 98.4903 473.502C97.6323 475.865 97.6323 478.455 98.4903 480.818C98.8387 481.542 99.5087 481.488 101.17 481.622C101.17 485.053 101.465 489.019 101.68 492.476C101.079 492.943 100.538 493.483 100.072 494.084C99.8839 494.513 99.8571 494.379 101.063 501.401C100.235 503.675 99.599 506.015 99.1603 508.396C98.9104 510.173 98.7583 511.962 98.7047 513.756C98.6988 514.717 98.9992 515.656 99.5623 516.436C102.955 519.087 106.757 521.169 110.818 522.6C115.354 521.878 119.637 520.036 123.28 517.24C123.733 516.834 124.079 516.324 124.289 515.754C124.499 515.185 124.567 514.572 124.486 513.97C124.324 509.584 123.576 505.24 122.262 501.052C122.798 498.758 123.085 496.413 123.12 494.058C122.959 493.548 122.664 493.307 121.217 492.369C121.565 489.046 121.887 485.294 122.128 481.998H125.478C127.595 481.864 126.952 478.165 127.059 475.217C127.059 474.172 126.041 473.797 125.076 473.582L150.482 309.834C152.332 320.018 156.7 345.478 156.673 355.877C156.673 358.396 150.214 441.476 148.633 463.238C148.379 463.296 148.146 463.426 147.963 463.613C147.012 465.904 146.815 468.438 147.4 470.849C147.695 471.653 148.446 471.653 149.571 471.84C149.169 475.592 148.794 479.612 148.499 483.498C147.427 483.498 147.106 483.766 146.757 484.758C145.712 487.76 144.64 498.399 146.516 501.347C147.776 503.304 190.254 511.424 201.51 506.466C203.761 505.448 203.654 503.143 203.278 500.704C202.635 496.309 184.518 490.279 179.158 487.652C178.649 487.384 178.756 487.465 178.542 487.063C175.862 482.185 175.112 480.122 174.334 479.746C173.559 479.523 172.744 479.477 171.949 479.612C171.762 477.763 171.574 475.968 171.36 473.931C171.806 474.009 172.266 473.943 172.673 473.743C173.798 472.939 173.691 469.562 173.959 467.311C173.991 467.005 173.905 466.698 173.718 466.454C172.271 464.336 171.038 473.234 185.483 422.77C185.001 428.398 181.034 473.422 182.428 475.646C182.83 476.209 183.607 476.236 184.572 476.316C202.34 478.112 428.023 486.446 446.971 486.661C450.214 486.661 460.371 486.875 461.336 486.232C470.34 480.765 490.44 165.302 486.554 137.135ZM286.76 129.336C289.44 125.718 317.982 124.11 320.743 122.529C320.895 122.461 321.025 122.352 321.119 122.215C321.214 122.078 321.269 121.918 321.279 121.752C321.409 116.542 322.257 111.374 323.798 106.396C324.654 103.86 326.059 101.544 327.912 99.6125C329.765 97.681 332.02 96.1813 334.518 95.22C341.781 92.54 354.136 94.8984 357.7 101.33C359.924 105.27 359.978 118.911 362.256 120.814C364.534 122.717 396.158 122.074 399.776 125.772C399.995 126.212 400.149 126.681 400.232 127.166C401.056 133.011 400.993 138.947 400.044 144.773C392.728 147.694 302.974 151.714 288.931 150.133C286.948 149.919 286.787 150.133 286.251 148.15C284.938 143.996 284.402 132.499 286.76 129.336ZM217.67 79.944C217.858 78.3896 217.161 79.1132 218.661 79.4348C218.449 79.8107 218.33 80.2326 218.315 80.6645C218.3 81.0963 218.39 81.5253 218.577 81.9149C218.764 82.3045 219.042 82.6431 219.388 82.9019C219.734 83.1607 220.138 83.332 220.564 83.4012C220.312 83.7556 220.159 84.1712 220.121 84.6048C220.083 85.0383 220.162 85.4741 220.35 85.8668C220.993 87.2068 221.904 87.3944 223.271 87.5552C222.739 88.1592 221.991 88.5289 221.188 88.5841C220.385 88.6393 219.593 88.3755 218.983 87.85C218.742 87.6088 217.563 86.1616 216.008 84.232C216.798 82.9054 217.359 81.456 217.67 79.944ZM227.238 78.9256C227.425 79.0306 227.589 79.1726 227.719 79.3431C227.85 79.5135 227.944 79.7087 227.997 79.9168C228.05 80.125 228.059 80.3416 228.026 80.5536C227.992 80.7656 227.915 80.9685 227.8 81.15C226.643 81.0279 225.473 81.1096 224.343 81.3912C223.137 81.6592 221.02 81.8468 220.511 81.0428C219.76 79.7564 225.254 77.5588 227.238 78.9256ZM221.583 73.7532C224.504 72.5472 226.166 74.584 225.656 75.6828C223.782 76.8958 221.591 77.5297 219.358 77.5052C219.237 77.503 219.117 77.4756 219.006 77.4249C218.895 77.3742 218.796 77.3011 218.715 77.2104C218.126 76.6476 218.528 76.058 219.037 75.522C219.771 74.7831 220.634 74.1837 221.583 73.7532ZM216.893 65.5256C213.596 60.7284 205.583 50.062 204.297 47.9984L229.837 18.5184C230.748 26.5584 239.539 41.2984 243.907 47.9984C244.051 48.1795 244.248 48.3108 244.47 48.3736C246.905 52.0184 249.909 55.2487 253.368 57.9412C251.277 58.2092 224.45 64.0248 216.893 65.5256ZM253.609 27.5232C254.286 27.7587 254.907 28.1316 255.433 28.6185C255.959 29.1055 256.378 29.6959 256.665 30.3528C256.952 31.0096 257.1 31.7187 257.1 32.4355C257.1 33.1523 256.951 33.8613 256.664 34.518C255.217 38.5112 251.304 41.5128 247.766 44.032C246.802 44.7556 245.864 45.4256 245.086 45.9348C241.472 40.7926 238.196 35.4213 235.278 29.8548C240.745 28.22 248.624 25.4864 253.609 27.5232ZM203.868 73.8336C195.158 77.2372 186.18 66.1688 190.468 57.2444C192.371 53.2244 199.285 49.9012 203.493 48.4004C204.592 50.4104 213.864 64.3196 215.446 66.812C211.84 69.5468 207.96 71.9 203.868 73.8336ZM207.861 74.1284C210.193 72.8152 212.953 71.0464 215.124 69.5188C216.008 70.9392 216.92 72.4936 217.804 73.914C217.334 74.2779 216.961 74.7519 216.718 75.2941C216.475 75.8363 216.369 76.43 216.41 77.0228C215.678 76.6379 214.845 76.4881 214.025 76.594C212.943 76.8127 211.984 77.4356 211.345 78.336L207.861 74.1284ZM217.08 93.1028C211.211 87.984 210.675 88.386 210.112 86.8316C209.55 85.2772 211.158 82.9992 211.506 82.0344C212.096 80.3192 213.972 77.7196 215.526 78.8184C216.571 79.542 215.097 83.7228 214.722 84.5804C214.576 84.8062 214.459 85.0493 214.374 85.304C215.365 86.6903 216.43 88.0232 217.563 89.2972C218.19 89.8495 218.939 90.2473 219.748 90.4587C220.557 90.6702 221.404 90.6894 222.222 90.5149C223.039 90.3404 223.805 89.9771 224.457 89.4538C225.109 88.9306 225.63 88.262 225.978 87.5016L227.264 87.2336C227.371 87.2083 227.464 87.1457 227.528 87.0571C227.592 86.9686 227.622 86.86 227.613 86.7512C227.613 86.0544 226.058 86.7512 223.968 86.0008C223.057 85.7328 222.467 85.6524 222.253 85.0896C221.77 83.9372 226.005 82.9992 227.318 83.026C227.669 82.9842 228.025 83.0125 228.366 83.1091C228.706 83.2057 229.024 83.3687 229.301 83.5888C229.569 83.83 233.402 90.932 233.911 92.1112L222.44 97.4712C220.913 96.4796 218.903 94.7644 217.08 93.1028ZM226.005 126.228C226.276 126.314 226.561 126.344 226.844 126.318C227.127 126.291 227.402 126.208 227.652 126.073C227.902 125.938 228.122 125.754 228.3 125.532C228.477 125.31 228.608 125.054 228.685 124.78C230.025 120.76 224.799 107.039 222.253 99.508L236.269 92.9152C239.512 95.8364 260.389 114.998 266.366 134.134C269.796 144.854 268.483 155.574 256.289 163.319C246.918 168.958 236.026 171.543 225.12 170.716C214.204 170.025 203.5 167.374 193.523 162.89C193.925 157.128 193.791 144.291 194.783 137.35C194.792 137.239 194.761 137.129 194.694 137.04C194.628 136.951 194.532 136.889 194.423 136.866C194.315 136.843 194.201 136.86 194.105 136.915C194.008 136.969 193.935 137.057 193.898 137.162C193.128 139.495 192.555 141.889 192.183 144.318C191.461 150.644 191.371 157.028 191.915 163.372C191.701 163.801 191.379 161.55 195.372 199.418C195.372 199.874 210.327 265.212 209.925 274.03C204.565 276.924 173.772 280.14 167.045 280.274C164.928 275.102 153.296 240.074 151.474 234.5C162.194 181.355 153.377 216.544 168.894 184.25C174.328 172.892 179.176 161.263 183.42 149.41C184.449 146.679 185.273 143.875 185.885 141.021C186.1 140.539 186.394 140.03 185.885 139.467L179.024 130.221C186.314 111.809 186.073 112.801 186.046 112.345C203.332 118.268 219.948 124.861 226.005 126.228ZM194.166 165.65C199.977 168.115 206.019 169.991 212.203 171.252C209.925 186.715 207.298 207.619 204.538 231.284C195.426 187.975 198.722 211.05 194.166 165.65ZM111.649 446.005C110.845 466.668 111.649 465.757 110.765 465.784C110.648 465.784 110.536 465.739 110.452 465.66C110.367 465.58 110.316 465.471 110.309 465.355C109.264 441.932 112.078 397.497 117.679 287.081H118.698C116.902 328.487 111.837 440.94 111.649 446.005ZM129.578 132.177C122.952 124.685 116.854 116.742 111.328 108.406C116.432 106.487 121.722 105.104 127.113 104.278C128.882 108.352 134.242 123.333 135.742 127.568L129.632 132.258L129.578 132.177ZM132.768 103.85C137.913 109.21 148.633 119.045 156.11 119.742C155.333 121.002 150.429 128.961 149.464 130.114C146.596 129.176 134.697 114.918 132.607 112.452C131.776 110.228 130.382 106.422 129.471 104.252L132.768 103.85ZM123.12 145.443V145.175C123.12 145.068 128.64 135.42 129.176 134.455C129.418 134 128.587 134.75 136.144 128.559C148.848 164.578 148.419 168.17 154.904 192.29C119.207 139.788 123.28 145.175 123.12 145.443ZM151.983 128.452C152.508 130.365 153.217 132.223 154.1 134C154.636 134.589 153.082 140.298 150.536 165.945C145.94 149.335 140.51 132.966 134.268 116.901C136.412 119.233 145.953 129.712 148.874 130.837C149.056 130.954 149.27 131.012 149.486 131.002C149.702 130.992 149.91 130.916 150.08 130.784C150.375 130.462 151.072 129.524 151.93 128.318L151.983 128.452ZM158.764 197.757C162.328 181.677 169.993 143.192 170.824 126.871L177.256 131.105C184.92 141.825 184.224 140.592 184.17 141.075C183.178 146.783 165.571 188.618 158.71 197.623L158.764 197.757ZM176.88 129.363L170.958 125.718C171.646 120.115 172.039 114.479 172.137 108.834C175.862 110.094 179.721 111.514 183.339 113.096C182.696 114.623 178.086 126.281 176.88 129.363ZM166.375 144.72C165.573 140.901 164.516 137.141 163.212 133.464C163.346 132.874 163.909 130.274 164.258 128.64C164.876 129.333 165.529 129.995 166.214 130.623C166.884 131.212 167.42 131.561 168.144 131.212C167.581 135.715 167.018 140.003 166.375 144.72ZM169.859 108.057C169.831 114.33 169.419 120.595 168.626 126.817C168.144 127.782 167.742 128.559 167.447 129.068C164.31 126.071 161.34 122.903 158.549 119.581C163.293 118.268 163.346 110.898 162.864 105.967C165.303 106.556 167.634 107.2 169.859 107.95V108.057ZM137.109 89.2972C137.27 88.8416 137.109 88.9756 137.511 89.056C139.141 89.2281 140.782 88.8561 142.178 87.9981C143.574 87.14 144.647 85.8441 145.23 84.3124C145.834 81.6747 145.657 78.9183 144.72 76.3796C144.319 75.1801 144.005 73.953 143.782 72.708C142.442 67.348 139.173 62.122 140.674 56.8692C141.036 55.4401 141.941 54.209 143.198 53.4381C144.454 52.6671 145.962 52.4174 147.4 52.742C148.131 53.0056 148.839 53.3283 149.518 53.7068C151.796 54.886 153.43 55.7436 154.502 54.6716C154.502 54.6716 157.745 51.4824 160.827 52.3132C162.06 52.7956 164.954 58.9328 165.598 62.2828C165.114 61.6379 164.406 61.1979 163.614 61.05C161.417 60.782 159.889 62.5776 160.211 63.1136C162.004 63.5153 163.878 63.3466 165.571 62.6312C166.49 67.6787 166.912 72.8041 166.83 77.934C165.587 77.1268 164.22 76.5292 162.784 76.1652C161.696 76.1285 160.615 76.3393 159.621 76.7816C158.553 76.5127 157.451 76.4043 156.352 76.46C153.27 77.0496 150.724 80.3996 149.169 81.82C148.472 82.4632 147.963 84.232 149.169 84.9824C150.375 85.7328 152.117 84.366 152.653 83.7496C154.863 81.5302 157.267 79.5122 159.836 77.7196C162.052 79.1843 164.342 80.5349 166.696 81.7664C166.391 83.074 166.292 84.4213 166.402 85.7596C165.775 87.3354 164.819 88.7598 163.6 89.9381C162.38 91.1164 160.923 92.0216 159.326 92.5936C159.116 92.6599 158.921 92.7681 158.754 92.9117C158.586 93.0553 158.449 93.2313 158.352 93.4291C158.254 93.6269 158.198 93.8424 158.185 94.0627C158.173 94.283 158.206 94.5034 158.281 94.7108C158.817 98.0608 161.39 105.056 160.613 112.104C160.372 114.302 159.675 117.062 157.477 117.303C151.045 118.027 139.092 106.958 134.563 102.295V92.138C135.767 91.4901 136.678 90.4068 137.109 89.1096V89.2972ZM134 66.4636C134.45 69.3041 134.746 72.167 134.885 75.0396C133.357 75.5756 131.32 73.5656 130.945 72.1452C130.088 69.1972 130.838 67.3212 134 66.4636ZM77.7203 281.4C77.3987 274.994 85.3315 243.531 86.8591 236.992C87.6044 237.793 88.5204 238.416 89.5391 238.814C89.771 238.84 90.0054 238.795 90.2111 238.685C90.4169 238.575 90.5844 238.405 90.6915 238.198C90.8791 237.93 91.5223 236.912 92.4603 235.518C93.2382 237.161 94.3308 238.636 95.6763 239.86C91.6831 243.129 90.8255 242.888 91.1739 243.531C91.2255 243.629 91.3128 243.703 91.4176 243.738C91.5225 243.773 91.6368 243.766 91.7367 243.719C103.154 238.68 108.996 229.542 109.666 216.758C109.674 216.652 109.643 216.547 109.579 216.463C109.515 216.379 109.422 216.322 109.318 216.302C108.406 216.302 109.05 218.5 106.075 225.95C104.734 224.616 103.087 223.632 101.278 223.083C101.635 222.614 102.029 222.175 102.457 221.77C103.073 221.609 103.422 220.992 103.073 220.108C102.189 217.776 96.6947 208.262 95.3011 205.877C95.3162 205.726 95.3162 205.573 95.3011 205.422C95.4619 201.696 96.3463 195.104 97.1771 188.002C98.78 174.053 99.5229 160.019 99.4015 145.979C99.2053 141.901 98.4478 137.87 97.1503 134C97.1254 133.886 97.0564 133.787 96.9584 133.724C96.8604 133.661 96.7414 133.64 96.6277 133.665C96.514 133.689 96.4148 133.758 96.352 133.856C96.2892 133.954 96.2678 134.073 96.2927 134.187C97.1235 140.083 97.5523 163.453 97.5523 163.989C95.0599 167.768 83.2411 183.794 83.2947 186.286C83.5757 187.786 84.0438 189.245 84.6883 190.628C84.6883 191.325 83.0535 186.983 93.9075 207.137C95.3279 209.817 99.6963 217.857 100.849 220.376C96.6771 225.498 92.8198 230.868 89.2979 236.456C83.2679 231.632 65.1779 211.264 60.0323 204.296C56.5159 199.915 54.0169 194.807 52.7159 189.342C51.2935 184.731 50.8732 179.87 51.4831 175.084C54.1631 157.798 71.6367 135.608 85.2511 124.164C92.7546 117.726 101.265 112.565 110.443 108.888C111.971 111.568 115.16 116.178 118.483 120.948C128.265 134.589 128.319 132.526 127.729 133.544C126.282 136.224 121.887 143.246 121.19 144.827C120.815 145.711 117.706 141.745 155.494 198.078C154.288 204.618 141.049 277.969 138.288 284.106C133.625 285.956 82.3567 285.339 77.7203 281.4ZM96.2391 239.377C95.1484 237.821 94.3325 236.09 93.8271 234.258C95.2656 231.513 96.9616 228.911 98.8923 226.486C100.045 224.959 99.9911 224.798 100.768 224.852C102.512 225.098 104.173 225.749 105.619 226.754C103.582 231.708 100.328 236.068 96.1587 239.431L96.2391 239.377ZM93.2911 202.393C91.6563 199.713 85.6531 188.377 85.4923 186.313C86.6179 183.312 92.5943 174.253 97.8471 165.57C97.2307 174.843 94.3363 190.655 93.2107 202.447L93.2911 202.393ZM122.128 513.97C122.127 514.368 122.073 514.765 121.967 515.149C121.919 515.248 121.845 515.331 121.753 515.39C118.997 517.502 115.883 519.099 112.56 520.107C110.738 520.67 110.711 520.724 106.718 518.874C104.544 517.924 102.44 516.822 100.42 515.578C99.7767 514.988 99.6963 513.059 99.6963 512.201C101.547 513.889 103.589 515.355 105.78 516.57C109.586 518.633 112.185 519.008 118.001 516.302C119.446 515.654 120.827 514.873 122.128 513.97ZM119.77 482.212C119.528 485.187 119.26 488.242 118.992 490.976C116.733 489.586 114.377 488.359 111.944 487.304C109.639 486.714 105.512 489.555 103.582 490.976C103.368 488.885 103.154 486.259 102.752 481.703C105.78 481.864 109.371 481.944 112.4 481.971C120.6 482.051 119.823 481.81 119.77 482.212ZM124.62 479.532C124.352 479.532 100.742 479.934 99.7767 479.854C99.0063 477.969 98.8105 475.899 99.2139 473.904C99.582 473.804 99.959 473.741 100.34 473.716C108.499 473.765 116.646 474.356 124.728 475.485C124.795 476.897 124.759 478.313 124.62 479.72V479.532ZM168.84 473.69C169.028 475.726 169.189 477.844 169.376 479.907C168.462 480.061 167.564 480.304 166.696 480.631C164.633 481.73 166.402 485.535 165.732 486.393C163.212 486.098 154.663 483.713 150.134 483.418C150.295 479.8 150.509 475.378 150.697 471.974C156.003 472.725 163.748 473.341 168.84 473.69ZM201 501.696C201 502.768 201.215 503.92 200.411 504.376C191.058 508.53 151.26 502.098 147.374 500.516C147.003 499.668 146.785 498.761 146.73 497.836C161.524 500.329 189.074 507.35 201 501.696ZM171.038 471.68C170.77 471.68 149.223 470.313 148.472 470.179C148.176 468.806 148.05 467.402 148.097 465.998C148.068 465.38 148.187 464.764 148.446 464.202C151.688 463.64 168.197 466.882 171.467 467.66C171.399 469.007 171.256 470.349 171.038 471.68ZM184.277 356.44C182.589 364.48 165.892 446.622 163.159 459.137C163.122 459.242 163.049 459.33 162.952 459.384C162.856 459.439 162.742 459.456 162.634 459.433C162.525 459.41 162.429 459.349 162.363 459.259C162.296 459.17 162.265 459.06 162.274 458.95C164.472 447.613 180.257 364.614 182.08 355.957C182.937 351.91 175.728 288.823 174.87 282.07H176.291C180.204 307.369 185.108 352.339 184.277 356.44ZM459.46 484.624C448.123 485.508 186.341 474.52 183.982 474.226C183.42 467.177 187.6 419.473 188.217 412.425C192.505 397.229 200.679 367.401 203.091 351.723C205.181 338.028 201.51 307.369 199.687 293.54C200.223 288.555 200.732 283.597 201.268 278.666C204.359 278.206 207.4 277.461 210.354 276.442C211.158 276.066 211.962 275.557 212.042 274.7C212.551 269.929 206.682 242.218 205.798 237.421C208.746 211.318 211.72 188.296 213.998 171.52C228.926 174.2 244.497 173.262 257.414 165.061C269.85 157.182 271.86 146.301 268.885 135.42C273.843 134.938 279.069 134.482 284.482 134.053C283.893 138.368 284 148.793 286.278 150.589C290.593 154.019 392.379 149.972 400.794 146.622C401.209 146.479 401.56 146.194 401.786 145.818C403.072 143.353 402.965 133.035 402.59 129.176C410.925 129.176 480.31 128.64 485.268 135.313C490.869 142.87 468.223 483.766 459.46 484.49V484.624Z" fill="url(#paint0_linear_1117_1976)"/>
<path d="M272.851 287.724C272.556 285.875 271.939 285.527 270.921 285.232C265.561 283.678 234.446 281.909 231.82 283.678C229.193 285.446 224.021 306.002 225.843 312.38C226.016 312.749 226.265 313.076 226.575 313.339C226.885 313.603 227.248 313.797 227.639 313.908C233.991 316.588 264.677 319.08 268 317.204C271.323 315.328 273.628 292.79 272.851 287.724ZM268 313.318C267.777 314.057 267.452 314.76 267.035 315.409C264.891 316.615 231.498 314.819 227.532 311.844C225.736 305.868 230.212 285.848 232.329 284.374C234.446 282.9 267.383 285.714 270.814 287.242C271.913 291.718 269.635 308.2 268 313.318ZM261.434 336.5C258.754 334.437 223.914 332.775 221.234 334.49C218.554 336.206 213.435 356.654 215.257 363.193C215.434 363.559 215.685 363.883 215.994 364.146C216.303 364.409 216.664 364.605 217.053 364.721C223.458 367.401 249.937 369.411 256.127 368.392C256.532 368.377 256.928 368.27 257.285 368.08C257.643 367.89 257.952 367.621 258.191 367.294C260.844 363.622 264.248 338.778 261.434 336.5ZM256.449 366.195C254.251 367.428 221.046 365.632 216.946 362.63C215.15 356.654 219.626 336.634 221.743 335.16C223.86 333.686 257.092 336.608 260.201 338.028C261.541 343.04 258.218 365.203 256.449 366.195ZM255.216 386.08C252.536 384.044 217.696 382.355 215.016 384.07C212.336 385.786 207.217 406.207 209.04 412.72C209.212 413.088 209.462 413.415 209.772 413.678C210.081 413.942 210.444 414.136 210.835 414.247C217.241 416.927 243.719 418.937 249.91 417.919C250.317 417.9 250.714 417.789 251.072 417.594C251.429 417.399 251.738 417.125 251.973 416.793C254.6 413.256 258.057 388.385 255.216 386.08ZM251.169 413.711C251.169 414.033 250.499 415.641 250.205 415.775C248.007 417.008 214.802 415.185 210.701 412.21C208.933 406.261 213.381 386.241 215.499 384.74C217.616 383.24 250.526 386.08 253.983 387.608C255.055 391.95 252.992 408.056 251.169 413.711Z" fill="url(#paint1_linear_1117_1976)"/>
<path d="M259.424 292.602C254.627 297.158 250.366 302.438 247.257 304.421C246.158 305.145 245.595 305.386 244.577 304.85C242.917 303.802 241.508 302.402 240.45 300.75C240.388 300.673 240.303 300.619 240.207 300.598C240.111 300.577 240.01 300.589 239.922 300.633C239.834 300.677 239.764 300.75 239.724 300.839C239.683 300.929 239.674 301.03 239.699 301.125C240.599 303.27 242.073 305.125 243.96 306.485C244.645 306.839 245.419 306.985 246.186 306.904C246.953 306.823 247.679 306.519 248.275 306.029C250.462 304.513 252.436 302.71 254.144 300.669C256.23 298.276 258.172 295.761 259.96 293.138C260.018 293.111 260.068 293.069 260.107 293.018C260.146 292.967 260.172 292.907 260.183 292.844C260.194 292.78 260.189 292.715 260.17 292.654C260.15 292.593 260.116 292.537 260.071 292.491C260.025 292.446 259.97 292.412 259.908 292.392C259.847 292.373 259.782 292.368 259.719 292.379C259.655 292.39 259.595 292.416 259.544 292.455C259.493 292.494 259.452 292.544 259.424 292.602ZM248.892 343.388C243.103 348.882 237.609 355.85 235.063 355.958C234.271 355.805 233.537 355.434 232.946 354.885C230.105 352.554 230.105 350.973 229.408 351.375C229.357 351.397 229.311 351.431 229.274 351.472C229.236 351.513 229.208 351.562 229.19 351.615C229.173 351.668 229.166 351.724 229.171 351.779C229.176 351.835 229.193 351.889 229.22 351.938C230.212 354.242 232.57 357.807 235.09 357.86C238.306 357.86 243.558 351.911 245.461 349.526C247.364 347.14 248.758 344.943 249.508 343.924C249.579 343.843 249.615 343.736 249.607 343.628C249.6 343.52 249.549 343.419 249.468 343.348C249.386 343.277 249.279 343.241 249.171 343.249C249.063 343.256 248.963 343.307 248.892 343.388ZM242.647 392.968C236.966 398.328 231.338 405.43 228.845 405.511C228.038 405.381 227.289 405.007 226.701 404.439C223.834 402.107 224.021 400.553 223.164 400.928C223.114 400.956 223.07 400.993 223.035 401.038C223 401.083 222.975 401.134 222.96 401.189C222.945 401.244 222.941 401.301 222.948 401.358C222.956 401.414 222.974 401.468 223.003 401.518C223.968 403.822 226.326 407.387 228.872 407.44C232.088 407.44 237.341 401.491 239.217 399.105C241.093 396.72 242.54 394.523 243.264 393.504C243.639 393.102 243.022 392.566 242.647 392.968ZM448.766 301.956C440.109 301.446 299.276 295.524 290.351 295.148C290.259 295.172 290.177 295.226 290.119 295.301C290.06 295.376 290.029 295.469 290.029 295.564C290.029 295.659 290.06 295.751 290.119 295.827C290.177 295.902 290.259 295.956 290.351 295.979C299.436 296.569 442.87 302.626 448.793 302.786C448.884 302.76 448.965 302.704 449.021 302.627C449.077 302.549 449.105 302.456 449.102 302.361C449.099 302.265 449.065 302.174 449.004 302.1C448.943 302.027 448.859 301.976 448.766 301.956ZM438.234 352.768C429.577 352.259 288.743 346.336 279.819 345.934C279.755 345.918 279.689 345.917 279.625 345.93C279.561 345.943 279.501 345.971 279.449 346.011C279.398 346.051 279.356 346.102 279.327 346.161C279.299 346.22 279.284 346.284 279.284 346.35C279.284 346.415 279.299 346.48 279.327 346.538C279.356 346.597 279.398 346.648 279.449 346.688C279.501 346.729 279.561 346.756 279.625 346.77C279.689 346.783 279.755 346.781 279.819 346.765C288.904 347.355 432.311 353.412 438.234 353.599C438.326 353.576 438.408 353.522 438.466 353.447C438.524 353.371 438.556 353.279 438.556 353.184C438.556 353.089 438.524 352.996 438.466 352.921C438.408 352.846 438.326 352.792 438.234 352.768ZM431.989 402.348C423.333 401.839 282.499 395.916 273.574 395.514C273.482 395.538 273.4 395.592 273.342 395.667C273.284 395.742 273.252 395.835 273.252 395.93C273.252 396.025 273.284 396.117 273.342 396.193C273.4 396.268 273.482 396.322 273.574 396.345C282.633 396.935 426.066 402.991 431.989 403.152C432.096 403.152 432.198 403.11 432.273 403.035C432.349 402.959 432.391 402.857 432.391 402.75C432.391 402.644 432.349 402.541 432.273 402.466C432.198 402.391 432.096 402.348 431.989 402.348ZM447.56 320.93C438.904 320.448 298.07 314.498 289.172 314.123C289.109 314.106 289.042 314.105 288.978 314.118C288.914 314.132 288.854 314.159 288.803 314.199C288.751 314.239 288.709 314.291 288.68 314.35C288.652 314.408 288.637 314.473 288.637 314.538C288.637 314.603 288.652 314.668 288.68 314.727C288.709 314.785 288.751 314.837 288.803 314.877C288.854 314.917 288.914 314.945 288.978 314.958C289.042 314.971 289.109 314.97 289.172 314.954C298.23 315.543 441.664 321.6 447.587 321.761C447.678 321.734 447.759 321.678 447.815 321.601C447.871 321.524 447.9 321.43 447.896 321.335C447.893 321.24 447.859 321.148 447.798 321.075C447.737 321.001 447.653 320.95 447.56 320.93ZM437.081 371.743C428.425 371.234 287.591 365.311 278.666 364.936C278.13 364.936 278.077 365.713 278.666 365.766C287.752 366.356 431.185 372.386 437.108 372.574C437.2 372.547 437.28 372.491 437.336 372.414C437.392 372.337 437.421 372.243 437.418 372.148C437.415 372.052 437.38 371.961 437.319 371.887C437.258 371.814 437.174 371.763 437.081 371.743ZM430.837 421.323C422.207 420.814 281.373 414.891 272.449 414.489C272.335 414.489 272.226 414.534 272.146 414.614C272.065 414.695 272.02 414.804 272.02 414.918C272.02 415.031 272.065 415.14 272.146 415.221C272.226 415.301 272.335 415.346 272.449 415.346C281.534 415.909 424.941 421.966 430.864 422.154C430.955 422.127 431.035 422.071 431.091 421.994C431.148 421.917 431.176 421.823 431.173 421.728C431.17 421.632 431.135 421.541 431.074 421.467C431.014 421.394 430.93 421.343 430.837 421.323ZM296.408 262.479C297.239 261.997 297.614 260.469 297.855 259.451C301.393 245.113 305.466 179.453 304.609 175.754C304.536 175.507 304.397 175.285 304.207 175.111C302.679 173.718 294.237 173.557 291.316 173.476C276.013 173.101 240.396 174.254 239.994 174.629C239.002 175.835 224.236 254.493 226.058 259.826C227.88 265.159 290.083 266.044 296.408 262.479ZM227.8 259.102C227.78 258.817 227.78 258.53 227.8 258.245C227.823 258.33 227.873 258.406 227.943 258.46C228.014 258.514 228.1 258.544 228.189 258.544C228.277 258.544 228.363 258.514 228.434 258.46C228.504 258.406 228.554 258.33 228.577 258.245C229.719 253.846 231.97 249.813 235.116 246.533C238.716 242.51 243.351 239.553 248.516 237.984C250.853 241.014 253.396 243.88 256.128 246.56C256.744 247.016 257.468 246.56 258.218 246.212C260.898 252.992 259.612 244.228 258.218 262.292C254.225 262.158 231.257 261.273 227.8 259.102ZM258.057 227.8C256.562 227.206 255.219 226.284 254.129 225.101C253.039 223.918 252.229 222.505 251.759 220.966C251.474 219.796 251.295 218.603 251.223 217.402C252.153 218.631 253.45 219.532 254.926 219.976C256.402 220.419 257.981 220.382 259.434 219.868C260.888 219.355 262.14 218.393 263.01 217.121C263.88 215.848 264.323 214.332 264.275 212.792H264.757C264.033 215.234 263.716 217.778 263.819 220.323C263.831 220.698 263.932 221.066 264.114 221.395C264.918 222.413 265.722 222.386 267.089 222.172C267.196 222.166 267.298 222.123 267.377 222.049C267.455 221.976 267.505 221.877 267.518 221.77C267.518 221.154 266.446 221.421 265.695 220.671C265.695 219.76 265.99 216.678 266.017 215.901C266.017 212.524 265.347 212.899 266.312 212.899C266.126 214.209 266.309 215.544 266.839 216.755C267.369 217.967 268.226 219.007 269.313 219.76C270.615 220.606 272.145 221.034 273.697 220.986C275.249 220.939 276.749 220.417 277.996 219.492C277.996 219.84 277.728 220.242 277.514 220.778C276.783 223.19 275.334 225.322 273.36 226.889C270.224 229.086 268.214 228.309 268.429 229.783C268.75 231.9 269.474 233.401 269.93 236.537C267.577 237.953 265.313 239.51 263.149 241.2C261.08 239.283 258.896 237.493 256.61 235.84C257.682 230.239 259.558 228.47 258.057 227.8ZM266.714 211.157C266.63 211.385 266.558 211.618 266.499 211.854C266.154 211.622 265.749 211.499 265.333 211.499C264.918 211.499 264.512 211.622 264.168 211.854C264.113 211.072 263.889 210.312 263.509 209.627C263.129 208.942 262.604 208.348 261.97 207.888C260.289 206.814 258.336 206.247 256.342 206.253C254.923 206.188 253.533 206.667 252.456 207.593C253.212 204.125 255.251 201.071 258.164 199.044C263.203 195.908 271.028 196.524 274.244 201.509C274.968 202.516 275.513 203.64 275.852 204.832C276.029 205.745 276.28 206.641 276.603 207.512C276.023 207.27 275.407 207.125 274.78 207.084C271.296 206.842 267.571 207.673 266.714 211.211V211.157ZM259.96 217.83C259.305 218.164 258.59 218.363 257.857 218.417C257.124 218.471 256.388 218.377 255.692 218.143C254.995 217.908 254.353 217.537 253.802 217.05C253.251 216.564 252.802 215.973 252.483 215.311C251.572 211.881 252.992 208.022 256.369 207.995C266.58 207.646 263.524 216.517 259.96 217.83ZM274.807 208.799C278.184 209.174 279.149 213.194 277.916 216.517C277.524 217.135 277.013 217.669 276.413 218.089C275.814 218.509 275.137 218.806 274.422 218.963C273.707 219.12 272.968 219.134 272.247 219.004C271.527 218.874 270.839 218.602 270.224 218.206C266.767 216.544 264.462 207.352 274.754 208.799H274.807ZM280.167 211.479L280.837 211.104C282.365 212.256 282.633 214.212 280.033 216.464C280.475 214.919 280.522 213.287 280.167 211.72V211.479ZM248.463 210.192C248.678 209.983 248.966 209.866 249.267 209.866C249.567 209.866 249.856 209.983 250.071 210.192C250.199 210.306 250.357 210.381 250.526 210.407C250.07 211.872 249.978 213.427 250.258 214.936C248.356 213.783 246.828 211.934 248.463 210.3V210.192ZM268.563 245.032C267.282 244.162 266.055 243.213 264.891 242.192L272.717 235.84C273.333 236.296 275.022 237.555 275.933 238.332C271.484 242.326 269.608 244.228 268.563 245.113V245.032ZM261.273 241.977C259.878 242.889 258.438 243.73 256.958 244.496C256.208 243.719 249.856 236.724 249.856 236.724C250.902 236.028 252.885 234.902 253.582 234.527L261.273 241.977ZM268 262.64C267.989 258.348 267.458 254.074 266.419 249.91C268.188 246.453 267.223 247.23 268.241 247.471C268.376 247.532 268.522 247.563 268.67 247.563C268.818 247.563 268.964 247.532 269.099 247.471C271.763 245.214 274.254 242.759 276.549 240.128C285.688 244.175 292.897 250.848 295.309 260.71C294.586 262.64 270.385 262.64 268 262.64ZM240.61 175.299C247.337 175.111 296.649 173.825 302.92 176.344C303.537 181.704 298.793 248.034 295.872 258.861C293.38 249.481 286.519 242.781 277.675 238.627C278.077 237.743 277.112 237.207 272.931 234.902C272.867 234.861 272.793 234.84 272.717 234.84C272.641 234.84 272.567 234.861 272.502 234.902L271.457 235.545C271.055 232.865 270.653 232.088 270.305 230.185C271.927 229.783 273.447 229.049 274.771 228.03C276.095 227.01 277.193 225.728 277.996 224.262C278.982 222.52 279.73 220.655 280.221 218.715C283.571 216.41 285.42 213.194 282.901 210.085C283.624 208.96 284.134 208.048 283.598 206.842C283.825 206.498 283.97 206.107 284.021 205.698C284.072 205.289 284.028 204.873 283.892 204.484C283.764 203.951 283.566 203.437 283.303 202.956C283.575 202.512 283.754 202.017 283.827 201.501C283.9 200.985 283.867 200.459 283.729 199.956C283.591 199.454 283.351 198.985 283.024 198.579C282.697 198.173 282.29 197.839 281.829 197.596C281.937 196.943 281.882 196.273 281.667 195.647C281.452 195.021 281.085 194.458 280.599 194.008C280.112 193.559 279.522 193.238 278.88 193.074C278.239 192.909 277.567 192.907 276.924 193.067C276.694 192.458 276.294 191.928 275.772 191.54C275.34 191.176 274.841 190.901 274.303 190.731C273.765 190.561 273.199 190.499 272.636 190.548C270.6 190.709 271.457 191.352 271.028 190.307C270.807 189.804 270.421 189.392 269.934 189.138C269.446 188.885 268.887 188.806 268.348 188.913C267.489 188.975 266.667 189.292 265.99 189.824C265.187 189.16 264.178 188.796 263.136 188.796C262.094 188.796 261.084 189.16 260.282 189.824C259.88 190.253 260.094 190.146 259.746 190.012C258.867 189.785 257.944 189.785 257.066 190.012C256.539 190.127 256.046 190.364 255.627 190.704C255.209 191.044 254.875 191.477 254.654 191.968C254.219 191.889 253.774 191.889 253.34 191.968C252.468 192.283 251.684 192.803 251.054 193.484C250.425 194.165 249.968 194.987 249.722 195.881C249.709 196.086 249.709 196.292 249.722 196.498C249.22 196.788 248.736 197.11 248.275 197.462C247.771 198.068 247.44 198.799 247.317 199.577C247.195 200.356 247.285 201.153 247.578 201.884C246.958 202.325 246.497 202.955 246.265 203.68C246.125 204.596 246.275 205.533 246.694 206.36C246.852 206.583 247.022 206.798 247.203 207.003L246.935 207.325C246.76 207.791 246.76 208.305 246.935 208.772C246.487 209.296 246.174 209.922 246.025 210.595C245.875 211.267 245.893 211.967 246.078 212.631C246.687 214.282 247.792 215.705 249.24 216.705C249.24 217.321 249.24 218.366 249.481 219.385C249.739 221.498 250.534 223.509 251.792 225.227C253.05 226.944 254.727 228.31 256.664 229.193C256.039 230.948 255.52 232.738 255.109 234.553C253.957 233.696 253.796 233.482 253.501 233.642C249.24 235.331 248.141 235.84 248.141 236.322C237.073 239.887 229.381 249.964 227.88 257.762C227.961 245.944 239.378 179.346 240.61 175.299ZM461.657 220.135C461.281 219.733 328.193 218.902 327.925 218.929C327.811 218.929 327.702 218.974 327.622 219.055C327.541 219.135 327.496 219.244 327.496 219.358C327.496 219.09 326.478 231.445 327.844 232.249C331.462 234.286 449.221 236.242 459.915 235.197C460.38 235.203 460.833 235.052 461.201 234.768C463.158 232.758 463.104 221.368 461.657 220.135ZM328.005 219.76H328.166C328.166 219.76 328.032 219.894 328.005 219.76ZM459.861 233.16C453.751 233.937 334.893 232.892 328.541 231.418C328.165 227.541 328.165 223.637 328.541 219.76L460.531 221.984C461.034 225.718 460.806 229.513 459.861 233.16ZM461.978 197.65C461.603 197.248 328.514 196.417 328.246 196.444C328.135 196.45 328.029 196.498 327.95 196.577C327.871 196.656 327.824 196.761 327.818 196.873C327.818 196.605 326.772 208.96 328.166 209.764C331.998 211.961 450.106 213.703 460.236 212.712C460.701 212.718 461.154 212.566 461.523 212.283C463.479 210.273 463.399 198.883 461.978 197.65ZM328.327 197.275H328.488C328.648 197.275 328.354 197.436 328.327 197.275ZM460.183 210.675C454.421 211.452 335.268 210.407 328.863 208.906C328.501 205.037 328.501 201.143 328.863 197.275L460.853 199.499C461.342 203.224 461.114 207.008 460.183 210.648V210.675ZM462.273 176.049C462.061 175.879 461.794 175.793 461.523 175.808C461.523 175.808 329.828 174.79 329.024 174.816C328.622 174.816 328.059 174.816 328.086 175.272C328.086 175.004 327.067 187.359 328.434 188.163C331.757 190.039 459.754 192.746 461.791 190.682C463.828 188.618 463.64 177.282 462.273 176.049ZM328.595 175.674H328.756C328.916 175.674 328.622 175.808 328.595 175.674ZM460.451 189.074C454.314 189.851 334.893 188.752 329.131 187.305C328.715 183.442 328.661 179.548 328.97 175.674L460.96 177.898C461.511 181.613 461.338 185.398 460.451 189.047V189.074ZM350.892 258.111C352.474 257.226 352.634 255.833 351.884 254.948C349.76 253.586 347.38 252.674 344.889 252.268C344.653 249.878 343.803 247.588 342.424 245.622C339.744 243.21 338.002 248.731 337.064 252.188C334.812 252.376 329.854 253.019 329.479 255.243C329.479 256.02 330.015 256.503 330.712 256.851C332.292 257.485 333.912 258.014 335.563 258.432C333.419 260.684 328.595 265.91 331.596 266.472C333.312 266.848 337.868 264.114 340.038 263.632C342.048 264.757 346.39 268.268 348.078 267.089C349.767 265.91 347.355 262.104 345.988 259.504C347.659 259.177 349.299 258.711 350.892 258.111ZM376.486 259.317C378.094 258.459 378.255 257.066 377.478 256.181C375.375 254.797 372.998 253.883 370.51 253.501C370.273 251.102 369.424 248.804 368.044 246.828C365.364 244.443 363.622 249.964 362.684 253.421C360.433 253.608 355.475 254.225 355.1 256.476C354.966 257.226 355.636 257.736 356.333 258.084C357.909 258.703 359.52 259.231 361.157 259.665C359.04 261.89 354.189 267.142 357.19 267.705C358.906 268.08 363.596 265.32 365.632 265.025C367.75 266.204 372.011 269.635 373.672 268.456C375.334 267.276 372.949 263.471 371.609 260.871C373.282 260.516 374.916 259.996 376.486 259.317ZM403.152 260.308C404.734 259.424 404.894 258.03 404.144 257.173C402.028 255.795 399.644 254.882 397.149 254.493C396.925 252.099 396.074 249.807 394.684 247.846C392.004 245.434 390.262 250.955 389.324 254.412C387.072 254.627 382.114 255.243 381.766 257.468C381.766 258.245 382.302 258.754 382.999 259.076C384.569 259.72 386.18 260.257 387.823 260.684C385.706 262.908 380.855 268.161 383.856 268.724C385.572 269.099 390.128 266.365 392.298 265.883C394.308 267.035 398.65 270.519 400.338 269.34C402.027 268.161 399.588 264.355 398.248 261.756C399.922 261.418 401.563 260.933 403.152 260.308ZM430.971 261.354C432.579 260.496 432.713 259.076 431.962 258.218C429.846 256.841 427.462 255.927 424.968 255.538C424.736 253.151 423.896 250.862 422.529 248.892C419.849 246.48 418.08 252.027 417.169 255.458C414.918 255.672 409.96 256.288 409.611 258.54C409.477 259.29 410.147 259.799 410.844 260.148C412.42 260.767 414.031 261.295 415.668 261.729C413.551 263.953 408.7 269.206 411.702 269.769C413.39 270.144 418.08 267.384 420.144 266.928C422.18 268.08 426.468 271.564 428.184 270.385C429.899 269.206 427.46 265.4 426.12 262.801C427.778 262.47 429.402 261.985 430.971 261.354ZM423.681 262.292C423.681 263.283 426.093 266.553 426.683 268.67C426.2 268.456 425.53 268.027 424.994 267.732C420.706 265.454 420.867 264.704 419.098 265.32C417.732 265.802 413.202 268.241 411.996 268.456C412.265 267.578 412.682 266.753 413.229 266.017C416.177 261.648 417.624 261.595 415.775 260.657C414.011 260.137 412.318 259.399 410.737 258.459C411.219 257.226 416.097 256.878 417.758 256.851C418.696 256.851 418.375 256.128 419.876 252.59C420.212 251.713 420.663 250.884 421.216 250.124C421.723 250.863 422.087 251.69 422.288 252.563C423.279 255.967 422.743 256.905 423.869 257.146C426.062 257.58 428.188 258.301 430.194 259.29C429.773 259.596 429.301 259.823 428.8 259.96C425.477 260.952 423.601 260.844 423.681 262.292ZM458.494 257.87C456.638 257.055 454.709 256.418 452.732 255.967C452.468 254.279 452.018 252.625 451.392 251.036C450.267 248.356 448.444 247.846 446.997 250.258C446.077 252.052 445.349 253.939 444.826 255.886C443.004 256.014 441.203 256.365 439.466 256.932C437.939 257.521 436.626 258.754 437.456 259.826C439.213 260.991 441.194 261.776 443.272 262.131C441.674 263.783 440.23 265.577 438.957 267.491C437.724 269.635 438.475 270.948 441.182 270.171C443.245 269.528 446.193 267.946 447.748 267.491C449.088 268.241 453.108 271.27 455.01 271.189C455.204 271.196 455.396 271.164 455.577 271.094C455.757 271.025 455.921 270.919 456.059 270.783C456.197 270.648 456.306 270.486 456.379 270.306C456.452 270.127 456.488 269.935 456.484 269.742C455.984 267.471 455.076 265.31 453.804 263.364C455.478 263.036 457.119 262.561 458.709 261.943C460.424 260.978 460.96 259.129 458.494 257.87ZM452.062 261.782C450.079 262.72 453.483 265.829 454.421 269.233C453.188 268.67 448.739 265.91 448.418 265.776C446.97 265.159 443.594 267.678 440.565 268.724L439.761 269.018C440.86 266.562 442.374 264.314 444.237 262.372C445.282 261.22 439.574 260.389 438.475 259.129C438.689 258.566 440.136 258.164 440.699 258.03C444.612 257.119 445.925 258.03 446.274 256.905C446.903 254.762 447.804 252.709 448.954 250.794C449.987 252.7 450.617 254.798 450.803 256.958C450.964 258.084 451.901 257.628 455.707 258.968C456.495 259.205 457.251 259.538 457.958 259.96C457.02 260.657 453.402 261.139 452.062 261.782ZM340.494 119.314C343.39 119.547 346.267 118.665 348.534 116.848C355.261 110.845 345.854 99.4279 336.528 105.565C329.238 110.362 333.687 119.046 340.494 119.314ZM337.519 107.2C339.341 105.867 341.607 105.291 343.844 105.592C344.962 105.755 346.027 106.173 346.956 106.814C347.886 107.456 348.655 108.303 349.204 109.29C351.026 114.516 346.176 117.652 340.548 117.33C335.643 117.062 332.159 110.872 337.519 107.2ZM110.255 237.26C109.719 237.046 110.255 237.26 106.396 241.173C102.537 245.086 98.9455 247.23 99.2939 247.873C99.6423 248.516 102.885 246.908 103.421 246.614C105.143 245.534 106.697 244.207 108.031 242.674C108.969 241.575 111.247 237.689 110.255 237.26ZM151.634 65.0971C151.768 64.4539 149.973 63.8911 148.66 64.0519C145.765 64.4271 144.559 66.7319 145.176 67.1339C147.434 66.8495 149.622 66.1595 151.634 65.0971ZM158.12 75.0399C158.88 75.3293 159.703 75.4125 160.505 75.2811C160.863 75.2127 161.207 75.086 161.524 74.9059C161.846 74.7577 162.114 74.5132 162.292 74.206C162.47 73.8988 162.548 73.5441 162.515 73.1907C162.515 70.7251 159.085 65.2847 158.174 65.8743C157.852 66.0619 157.932 66.1959 158.442 67.8843C158.768 69.039 159.18 70.1678 159.674 71.2611C159.958 71.9003 160.182 72.5642 160.344 73.2443C159.788 73.7582 159.086 74.0861 158.334 74.1823C158.278 74.1682 158.219 74.1654 158.162 74.1739C158.105 74.1825 158.05 74.2023 158 74.2321C157.95 74.262 157.907 74.3014 157.872 74.348C157.837 74.3946 157.812 74.4476 157.798 74.5039C157.784 74.5602 157.781 74.6188 157.79 74.6762C157.799 74.7336 157.818 74.7888 157.848 74.8385C157.878 74.8883 157.917 74.9317 157.964 74.9663C158.011 75.0008 158.064 75.0258 158.12 75.0399ZM157.209 85.3847C157.388 85.7946 157.655 86.1602 157.991 86.4556C158.327 86.751 158.723 86.969 159.153 87.0943C159.582 87.2195 160.034 87.249 160.476 87.1805C160.918 87.112 161.34 86.9472 161.711 86.6979C161.813 86.6561 161.896 86.5787 161.946 86.4802C161.995 86.3816 162.007 86.2686 161.979 86.1619C161.765 85.5455 161.229 86.3227 159.862 85.5455C159.579 85.3736 159.343 85.1344 159.174 84.8492C159.006 84.564 158.911 84.2416 158.897 83.9107C158.912 83.5638 159.002 83.2242 159.159 82.9145C159.316 82.6048 159.537 82.3323 159.808 82.1151C160.052 81.9861 160.323 81.9186 160.599 81.9186C160.875 81.9186 161.146 81.9861 161.39 82.1151C161.818 82.4635 162.301 81.7935 161.872 81.4719C159.299 78.4971 155.681 82.2759 157.209 85.3847ZM163.48 200.089C162.851 200.1 162.235 200.268 161.686 200.576C161.138 200.883 160.674 201.323 160.337 201.854C160 202.385 159.8 202.991 159.754 203.618C159.709 204.246 159.819 204.875 160.076 205.449C161.845 209.013 167.929 207.7 167.822 203.841C167.799 203.304 167.666 202.777 167.432 202.293C167.199 201.809 166.868 201.378 166.461 201.027C166.055 200.675 165.58 200.411 165.068 200.249C164.555 200.088 164.015 200.033 163.48 200.089ZM165.812 204.672C165.78 204.934 165.697 205.187 165.567 205.417C165.438 205.647 165.264 205.85 165.056 206.013C164.848 206.176 164.611 206.296 164.356 206.367C164.102 206.438 163.836 206.459 163.574 206.427C163.312 206.395 163.058 206.312 162.828 206.183C162.598 206.053 162.396 205.879 162.233 205.672C162.07 205.464 161.949 205.226 161.878 204.972C161.807 204.717 161.787 204.451 161.818 204.189C161.818 203.944 161.867 203.701 161.962 203.475C162.056 203.249 162.195 203.044 162.369 202.872C162.544 202.7 162.751 202.564 162.978 202.473C163.206 202.382 163.449 202.336 163.694 202.34C164.003 202.307 164.315 202.345 164.606 202.453C164.897 202.56 165.16 202.734 165.372 202.96C165.585 203.186 165.743 203.458 165.833 203.755C165.923 204.052 165.943 204.365 165.892 204.672H165.812ZM162.756 218.259C162.125 218.264 161.505 218.427 160.952 218.733C160.4 219.039 159.933 219.479 159.595 220.012C159.256 220.545 159.057 221.155 159.014 221.785C158.972 222.415 159.088 223.046 159.353 223.619C161.095 227.13 167.205 225.897 167.098 222.011C167.071 221.475 166.937 220.951 166.701 220.468C166.466 219.986 166.136 219.557 165.73 219.206C165.324 218.856 164.851 218.591 164.34 218.428C163.829 218.265 163.29 218.208 162.756 218.259ZM165.088 222.842C165.096 223.131 165.043 223.419 164.931 223.686C164.819 223.953 164.652 224.194 164.44 224.391C164.228 224.588 163.977 224.738 163.703 224.831C163.428 224.923 163.137 224.956 162.849 224.927C162.561 224.898 162.283 224.808 162.032 224.664C161.781 224.519 161.565 224.322 161.396 224.086C161.228 223.851 161.111 223.582 161.054 223.299C160.998 223.015 161.002 222.722 161.068 222.44C161.075 221.947 161.276 221.477 161.627 221.131C161.978 220.785 162.451 220.591 162.944 220.591C163.239 220.573 163.535 220.621 163.81 220.729C164.085 220.838 164.334 221.005 164.538 221.219C164.742 221.434 164.897 221.69 164.992 221.97C165.087 222.25 165.12 222.548 165.088 222.842ZM151.5 68.7151C151.5 69.1439 151.661 69.5727 151.822 70.4839C151.851 70.6585 151.915 70.8255 152.009 70.9755C152.103 71.1254 152.226 71.2551 152.37 71.3573C152.515 71.4595 152.678 71.532 152.851 71.5707C153.023 71.6094 153.202 71.6135 153.376 71.5827C153.723 71.5236 154.033 71.3301 154.239 71.0442C154.445 70.7584 154.529 70.4031 154.475 70.0551C154.475 69.5727 154.234 68.9027 154.18 68.4203C154.141 68.0649 153.963 67.7396 153.684 67.516C153.405 67.2923 153.048 67.1886 152.693 67.2277C152.338 67.2668 152.012 67.4455 151.789 67.7244C151.565 68.0034 151.461 68.3597 151.5 68.7151ZM163.078 68.3667C163.123 68.6816 163.282 68.9692 163.523 69.1762C163.765 69.3833 164.073 69.4956 164.391 69.4923C164.585 69.4904 164.777 69.447 164.953 69.3653C165.129 69.2835 165.286 69.1651 165.413 69.018C165.539 68.871 165.633 68.6986 165.688 68.5123C165.743 68.3261 165.758 68.1303 165.731 67.9379C165.517 66.7587 165.463 66.6247 165.41 66.3031C165.367 65.9477 165.185 65.6238 164.903 65.4027C164.622 65.1816 164.264 65.0813 163.909 65.1239C163.553 65.1666 163.229 65.3486 163.008 65.6301C162.787 65.9116 162.687 66.2693 162.73 66.6247C162.81 66.9999 162.917 67.4287 163.078 68.3667ZM203.037 240.718C203.358 241.039 203.868 240.557 203.546 240.235C197.06 232.436 195.506 224.557 196.658 214.695C196.673 214.643 196.676 214.588 196.666 214.535C196.656 214.482 196.634 214.432 196.601 214.389C196.569 214.346 196.527 214.311 196.479 214.287C196.43 214.263 196.377 214.251 196.323 214.251C196.269 214.251 196.216 214.263 196.168 214.287C196.12 214.311 196.078 214.346 196.045 214.389C196.013 214.432 195.991 214.482 195.981 214.535C195.971 214.588 195.974 214.643 195.988 214.695C193.255 224.638 195.158 233.589 203.037 240.718Z" fill="url(#paint2_linear_1117_1976)"/>
<path d="M257.816 211.72C257.464 211.682 257.112 211.785 256.836 212.006C256.56 212.226 256.382 212.547 256.342 212.899V214.668C256.342 215.023 256.483 215.364 256.734 215.615C256.986 215.866 257.326 216.008 257.682 216.008C258.037 216.008 258.378 215.866 258.629 215.615C258.881 215.364 259.022 215.023 259.022 214.668V213.247C259.048 213.067 259.037 212.883 258.99 212.707C258.943 212.531 258.86 212.367 258.748 212.224C258.635 212.081 258.494 211.962 258.334 211.876C258.173 211.789 257.997 211.736 257.816 211.72ZM272.475 216.195C272.648 216.218 272.823 216.205 272.991 216.16C273.159 216.114 273.316 216.035 273.454 215.927C273.591 215.82 273.705 215.687 273.79 215.535C273.875 215.383 273.93 215.216 273.949 215.043V213.301C273.949 212.945 273.808 212.605 273.557 212.353C273.306 212.102 272.965 211.961 272.609 211.961C272.256 211.968 271.919 212.111 271.669 212.361C271.42 212.611 271.276 212.947 271.269 213.301V214.721C271.251 214.897 271.267 215.075 271.318 215.245C271.369 215.415 271.453 215.573 271.565 215.71C271.677 215.847 271.815 215.96 271.972 216.044C272.128 216.127 272.299 216.178 272.475 216.195ZM261.327 225.361C263.518 226.056 265.849 226.195 268.107 225.763C268.375 225.763 268.348 225.334 268.107 225.361L266.419 225.12C264.751 224.981 263.075 224.981 261.407 225.12C261.139 224.905 261.059 225.334 261.327 225.361Z" fill="url(#paint3_linear_1117_1976)"/>
<defs>
<linearGradient id="paint0_linear_1117_1976" x1="48.9404" y1="267.962" x2="487.047" y2="267.962" gradientUnits="userSpaceOnUse">
<stop stop-color="#3A608D"/>
<stop offset="0.5" stop-color="#3F7B8C"/>
<stop offset="1" stop-color="#1B2D4D"/>
</linearGradient>
<linearGradient id="paint1_linear_1117_1976" x1="208.656" y1="350.564" x2="273.002" y2="350.564" gradientUnits="userSpaceOnUse">
<stop stop-color="#3A608D"/>
<stop offset="0.5" stop-color="#3F7B8C"/>
<stop offset="1" stop-color="#1B2D4D"/>
</linearGradient>
<linearGradient id="paint2_linear_1117_1976" x1="99.2705" y1="243.089" x2="463.311" y2="243.089" gradientUnits="userSpaceOnUse">
<stop stop-color="#3A608D"/>
<stop offset="0.5" stop-color="#3F7B8C"/>
<stop offset="1" stop-color="#1B2D4D"/>
</linearGradient>
<linearGradient id="paint3_linear_1117_1976" x1="256.342" y1="218.86" x2="273.949" y2="218.86" gradientUnits="userSpaceOnUse">
<stop stop-color="#3A608D"/>
<stop offset="0.5" stop-color="#3F7B8C"/>
<stop offset="1" stop-color="#1B2D4D"/>
</linearGradient>
</defs>
</svg>
