<svg width="536" height="536" viewBox="0 0 536 536" fill="none" xmlns="http://www.w3.org/2000/svg">
<path d="M188.377 60.5154C189.663 59.363 193.496 59.6042 194.166 61.507C193.263 61.1269 192.302 60.9005 191.325 60.837C190.35 60.6637 189.366 60.5563 188.377 60.5154ZM179.292 61.9626C177.79 62.4213 176.357 63.0793 175.03 63.919C175.139 63.4821 175.345 63.0752 175.632 62.7285C175.92 62.3818 176.281 62.1043 176.691 61.9164C177.1 61.7285 177.546 61.6351 177.996 61.6431C178.447 61.6511 178.889 61.7603 179.292 61.9626ZM182.24 67.2958V74.9874C182.073 76.0639 182.292 77.1645 182.856 78.0962C183.526 78.8466 185.536 79.4898 186.474 78.7662C185.675 79.4824 184.652 79.8992 183.58 79.9454C178.032 79.999 182.481 70.083 182.24 67.2958ZM191.539 66.0362C192.611 66.0362 192.772 69.1182 191.673 69.1182C190.574 69.1182 190.28 66.0362 191.539 66.0362ZM177.55 66.6526C178.729 66.6526 178.514 69.681 177.55 69.681C176.585 69.681 176.558 66.6526 177.55 66.6526ZM193.522 77.9086C194.407 81.9822 189.529 86.3774 185.643 84.2066C187.432 84.0528 189.135 83.3724 190.537 82.2515C191.939 81.1306 192.978 79.6194 193.522 77.9086ZM394.496 144.533C394.37 144.832 394.217 145.12 394.04 145.391C394.146 145.083 394.299 144.793 394.496 144.533ZM284.75 389.191C286.92 387.556 289.734 388.467 292.173 388.789C383.079 400.098 457.261 403.502 461.013 405.539C465.784 408.058 464.229 416.473 458.333 415.991C403.715 411.461 349.07 407.039 294.585 400.313C291.592 400.224 288.621 399.765 285.741 398.946C284.814 398.56 284.008 397.93 283.409 397.123C282.81 396.317 282.44 395.363 282.339 394.364C282.237 393.364 282.408 392.356 282.832 391.445C283.256 390.535 283.919 389.756 284.75 389.191ZM54.216 440.834C55.7972 434.375 62.256 435.474 67.214 435.796L84.9824 437.029C89.726 437.377 95.9972 437.029 97.5784 442.71C98.0608 444.452 97.8463 444.559 96.8815 458.603C96.5599 463.132 97.4443 471.547 93.6119 474.87C90.2619 477.791 84.1783 476.291 80.2119 476.023C53.6799 474.147 60.0048 474.656 59.0132 474.522C57.1343 474.351 55.3939 473.461 54.1554 472.038C52.9169 470.615 52.2761 468.768 52.3668 466.884C52.3668 462.569 52.9832 458.227 53.278 453.913C53.2408 449.535 53.5545 445.162 54.216 440.834ZM505.367 217.858C474.362 217.4 443.447 214.397 412.934 208.88C458.521 213.945 476.906 215.5 505.367 217.858ZM473.154 192.237C451.513 191.743 429.952 189.43 408.7 185.323C430.193 187.306 451.74 189.638 473.154 192.237ZM168.116 183.956C136.921 181.276 105.779 177.417 74.7448 173.236C40.9232 168.761 46.176 169.297 81.0695 172.995C110.121 176.131 139.199 179.561 168.116 183.956ZM113.605 155.709C88.788 153.806 63.8103 150.724 39.2615 146.517C54.9663 147.696 87.582 151.26 113.605 155.709ZM467.526 72.361C437.958 71.219 408.5 68.0852 379.354 62.981C388.385 63.7314 467.258 72.2002 467.526 72.361Z" fill="url(#paint0_linear_1117_1971)"/>
<path d="M39.6909 351.938C42.7729 317.634 44.4613 305.869 52.3405 243.506C52.6425 238.941 53.5436 234.435 55.0205 230.106C56.3988 226.533 58.8376 223.467 62.0091 221.321C65.1806 219.175 68.9329 218.05 72.7621 218.099C78.5509 217.858 149.759 223.298 162.274 224.21C163.561 223.781 164.659 221.53 165.57 220.243C176.29 206.227 199.982 189.477 215.258 182.723C213.382 180.043 213.944 176.372 213.301 173.263C211.747 165.893 203.868 161.042 197.543 146.918C193.55 138.021 194.863 139.12 193.094 138.718C180.746 139.375 168.369 139.295 156.03 138.476C106.45 134.269 69.6801 104.521 61.6401 84.0455C59.6021 84.3706 57.5318 84.4426 55.4761 84.2599C53.8177 84.1464 52.2608 83.4205 51.1077 82.2231C48.8833 79.8647 47.7309 75.7911 51.3757 74.1831C49.8749 73.8883 46.5785 73.1915 47.2753 70.9135C48.2669 67.7779 56.6285 68.9303 60.0053 69.9487C65.3653 71.5031 65.9281 72.8967 67.4825 73.0575C69.0369 73.2183 66.7589 72.5215 72.8425 73.4595C80.4805 74.6387 89.1905 75.7375 97.2037 77.0507C132.258 82.8127 133.759 90.4508 141.585 89.9416C154.511 88.468 167.56 88.414 180.498 89.7807C172.967 81.4191 172.217 60.8903 172.137 60.6223C171.788 59.3359 171.815 59.7915 170.341 59.6575C163.105 58.9071 156.619 54.0563 157.665 46.9543C158.073 44.3698 159.21 41.9555 160.943 39.9948C162.675 38.0342 164.932 36.6088 167.447 35.8859C162.944 33.7955 164.606 27.8459 167.768 25.4607C169.187 24.2676 170.89 23.4626 172.713 23.1244C174.535 22.7862 176.414 22.9263 178.167 23.5311C177.416 20.6099 179.962 18.7071 182.401 17.9299C183.875 17.46 185.434 17.3149 186.97 17.5045C188.506 17.6942 189.983 18.2142 191.299 19.0287C189.423 11.8463 207.111 10.7743 206.735 19.6987C216.035 15.2767 222.521 29.2127 220.377 28.9179C224.423 29.4271 228.818 35.3231 225.361 38.8607C226.698 39.4078 227.913 40.2157 228.934 41.2372C229.956 42.2587 230.764 43.4733 231.311 44.8103C231.554 45.4404 231.666 46.1138 231.638 46.7886C231.61 47.4635 231.445 48.1255 231.151 48.7336C230.857 49.3417 230.441 49.8829 229.929 50.3237C229.417 50.7644 228.82 51.0954 228.175 51.2959C231.07 53.1183 231.311 58.9339 227.291 59.6307C227.846 60.1316 228.281 60.7523 228.561 61.4458C228.841 62.1394 228.96 62.8876 228.909 63.6338C228.857 64.3801 228.636 65.1048 228.263 65.7531C227.89 66.4015 227.374 66.9564 226.755 67.3759C226.165 67.8047 224.879 68.0995 224.932 69.0643C224.932 69.3859 226.085 70.5651 226.246 70.9939C226.594 71.9089 226.594 72.9198 226.246 73.8347C225.549 75.5231 224.289 75.5231 222.869 76.1663C222.521 76.3539 221.047 77.1847 221.073 78.5247C221.26 80.2243 222.016 81.8109 223.217 83.0271C224.236 83.6435 224.343 83.0271 225.281 82.4643C237.493 73.7916 251.245 67.5248 265.803 63.9991C288.167 58.3286 311.619 58.5395 333.878 64.6115C356.137 70.6835 376.447 82.41 392.834 98.6516C393.263 99.0803 394.818 101.332 395.514 101.332C396.28 100.962 397.015 100.531 397.712 100.045C398.77 99.5602 399.903 99.261 401.062 99.1608C400.633 98.3568 398.784 96.4808 399.293 95.7303C399.293 95.5695 420.921 96.1055 421.001 96.1591C422.207 96.6684 422.502 98.9999 422.85 100.206C426.254 112.641 423.065 119.556 422.85 126.658C422.647 133.107 421.266 139.465 418.777 145.418C418.187 146.784 417.196 150.295 415.695 150.938C408.239 151.156 400.784 150.509 393.478 149.009C392.325 148.607 392.432 149.009 392.62 148.071C392.937 147.113 393.398 146.209 393.987 145.391C393.612 146.382 393.21 147.856 392.968 148.312C398.925 149.158 404.935 149.579 410.951 149.572C412.02 149.692 413.099 149.692 414.167 149.572C415.052 149.84 415.561 149.572 415.722 148.634C419.479 141.303 421.773 133.311 422.475 125.103C420.82 130.948 418.034 136.411 414.274 141.183C413.095 142.63 410.898 145.98 408.914 146.543C407.703 146.635 406.485 146.499 405.323 146.141C393.665 144.56 394.603 144.372 394.308 144.64C393.129 144.453 391.923 144.372 390.771 144.131C388.814 143.676 389.458 143.3 390.771 141.666C394.391 137.061 397.383 131.996 399.668 126.604C397.39 126.604 394.818 122.37 393.933 121.646C393.049 120.922 393.29 121.244 391.923 121.78C389.678 122.435 387.347 122.742 385.009 122.691C376.361 123.183 367.685 122.779 359.12 121.485C332.32 117.626 325.566 106.504 314.284 111.864C320.823 118.108 328.246 125.612 331.355 134.322C332.802 138.342 331.355 139.146 331.355 140.888C331.355 142.014 331.355 141.8 332.481 142.63C377.88 176.881 357.083 213.65 350.196 240.075C497.596 252.162 480.363 248.678 487.278 252.001C502.152 259.157 497.033 278.131 495.934 291.129C477.603 510.085 481.194 506.36 474.976 515.284C469.616 523.137 459.566 523.083 451.017 522.199C358.423 512.792 63.5429 496.23 45.8281 492.719C35.7245 490.762 31.0613 482.937 30.6593 473.155C30.0965 459.165 38.4313 366.142 39.6909 351.938ZM54.0021 83.0807C56.9501 80.6955 56.3069 79.4627 51.5633 81.0171C52.1563 81.9293 53.0044 82.6469 54.0021 83.0807ZM50.9201 79.9987C51.3842 79.7741 51.8688 79.5946 52.3673 79.4627C51.979 78.9697 51.6548 78.4294 51.4025 77.8547C51.2622 77.4584 51.228 77.0322 51.3032 76.6185C51.3784 76.2048 51.5605 75.818 51.8313 75.4963C49.8749 76.4879 49.8213 77.5599 50.6521 79.4627L50.9201 79.9987ZM56.6017 70.3507C55.1813 70.2167 49.4997 69.6003 48.7493 71.3155C48.2133 72.5483 51.4293 72.9235 52.5013 73.1915C54.4845 73.7275 55.9585 72.8699 57.9953 73.1915C56.4889 73.3821 55.0673 73.9954 53.8949 74.9603C51.9921 76.7291 51.8581 77.6404 55.4761 77.1579C56.0121 77.1579 56.6017 78.2567 56.9769 78.6051C57.344 79.0142 57.7892 79.3459 58.2862 79.5806C58.7833 79.8153 59.3221 79.9483 59.8713 79.9719C59.2774 80.1617 58.6446 80.1948 58.0342 80.0681C57.4238 79.9413 56.8565 79.6589 56.3873 79.2483C58.4241 80.6419 55.6101 82.5984 54.4309 83.188C55.8128 83.6874 57.3051 83.7986 58.7457 83.5095C59.661 83.4891 60.5667 83.3171 61.4257 83.0003C61.6937 82.7859 63.8645 76.3271 66.9197 73.8615C63.7613 72.0726 60.2997 70.8824 56.7089 70.3507H56.6017ZM398.087 100.688C397.426 101.086 396.791 101.525 396.184 102.002C397.437 103.307 398.404 104.858 399.025 106.558C399.588 107.978 399.24 108.085 400.553 108.38C401.464 108.594 402.59 108.38 403.528 108.621C403.458 106.307 403.024 104.019 402.241 101.841C401.062 98.7319 401.678 98.5979 398.087 100.688ZM398.73 108.46H399.668C399.374 107.978 399.079 107.522 398.757 107.067C398.809 107.53 398.8 107.999 398.73 108.46ZM399.695 127.542C397.478 133.101 394.482 138.316 390.798 143.032L405.082 144.721C406.124 144.993 407.195 145.137 408.271 145.15C409.665 144.882 410.951 142.979 411.943 141.88C416.406 136.645 419.654 130.485 421.452 123.845C423.25 117.204 423.554 110.248 422.341 103.476C422.127 102.323 421.698 98.1155 420.68 97.2847C420.358 97.0703 421.484 97.4991 399.91 96.3199C402.144 99.4816 403.495 103.182 403.822 107.04C403.822 108.621 404.01 108.3 405.457 108.675C406.247 108.842 407.001 109.151 407.682 109.586C409.129 110.685 409.048 112.078 407.146 112.695C408.27 112.85 409.343 113.263 410.281 113.901C410.603 114.169 411.005 114.973 411.353 115.107C412.013 115.176 412.677 115.176 413.336 115.107C414.526 115.207 415.666 115.626 416.637 116.319C417.609 117.013 418.376 117.955 418.857 119.046C421.537 126.122 408.298 130.061 405.028 123.817C404.653 123.12 404.707 122.075 404.198 121.726C403.806 121.673 403.41 121.673 403.018 121.726C400.606 121.539 402.107 122.745 401.705 124.406C401.303 126.068 400.553 125.398 399.695 127.542ZM409.665 120.815C409.37 121.941 404.76 122.772 404.573 122.048C406.047 128.507 417.973 126.792 417.651 120.574C417.49 117.331 414.167 116.018 411.434 115.509C412.318 115.67 411.112 117.465 410.924 117.572C409.864 117.989 408.697 118.045 407.601 117.733C408.593 118.242 410.04 119.556 409.665 120.815ZM401.625 121.807C401.34 121.767 401.052 121.767 400.767 121.807C401.011 122.062 401.203 122.362 401.33 122.691C401.437 122.343 401.544 122.075 401.625 121.807ZM395.461 122.611C396.667 123.79 399.374 127.086 400.526 124.755C401.491 122.852 399.561 122.906 399.213 121.432C398.864 119.958 399.588 120.628 400.526 120.654L403.903 120.815C404.921 120.815 408.218 121.592 408.325 120.065C408.432 118.537 404.492 117.84 403.581 117.385C402.027 116.634 402.348 116.072 403.822 115.911C406.502 115.643 410.12 117.492 410.147 115.911C410.174 114.33 406.02 114.088 405.189 113.928C404.358 113.767 402.509 113.606 403.635 112.427C404.332 111.703 408.593 112.748 407.199 110.631C406.556 109.693 399.776 108.273 398.65 109.13C398.344 110.253 398.137 111.401 398.034 112.561C397.358 115.579 395.876 118.358 393.746 120.601C394.282 121.351 394.871 121.994 395.461 122.611ZM317.741 109.506C322.979 109.104 328.22 110.26 332.802 112.829C343.174 117.867 365.472 122.343 383.722 120.869C390.315 120.306 392.057 120.092 395.059 114.49C396.348 112.433 397.035 110.057 397.042 107.63C396.524 105.285 395.184 103.202 393.263 101.76C347.703 55.1284 275.343 49.7415 227.586 81.6335C227.199 81.8624 226.831 82.1223 226.487 82.4107C226.299 83.6435 226.005 85.5463 225.924 86.4575C225.227 94.6583 220.055 105.78 212.283 108.273C207.459 109.854 200.223 106.772 201.563 100.688C201.215 107.656 211.801 110.524 218.045 102.27C222.259 96.4998 225.018 89.7973 226.085 82.7323C224.986 83.5095 224.638 84.4207 223.405 83.6971C221.663 82.7055 221.315 78.8999 220.859 78.3371C220.001 77.2651 217.616 79.3555 215.499 77.3991C215.048 76.8926 214.71 76.2963 214.507 75.6495C214.304 75.0028 214.24 74.3204 214.32 73.6471C214.514 72.8713 214.658 72.0835 214.749 71.2887C214.749 70.6991 214.293 70.2703 214.212 69.7343C213.998 68.0727 215.151 67.6707 216.142 66.4915C217.043 65.3996 217.602 64.0668 217.75 62.6591C217.965 60.7027 217.482 56.9775 214.749 57.2991C212.015 57.6207 212.069 61.2923 210.675 63.0611C210.258 63.4976 209.72 63.7983 209.13 63.9241C208.539 64.05 207.925 63.995 207.367 63.7664C206.808 63.5378 206.332 63.1463 205.999 62.6428C205.667 62.1393 205.494 61.5473 205.503 60.9439C205.503 57.4867 206.816 53.8419 207.03 50.2239C201.188 50.6527 200.142 48.0799 198.401 48.4819C197.221 48.7499 197.221 49.9291 192.29 53.5203C186.631 57.4005 179.986 59.5939 173.128 59.8451C173.512 63.9129 174.166 67.9508 175.085 71.9319C176.344 77.7207 178.22 84.6351 182.669 88.8695C186.448 92.5143 192.478 92.5679 197.248 91.1207C198.393 90.7281 199.512 90.2626 200.598 89.7271C201.965 89.1375 202.018 89.0035 202.528 90.5311C203.31 92.1585 203.679 93.9532 203.605 95.7571C203.53 97.561 203.013 99.3188 202.099 100.876C205.181 95.2479 199.607 92.2999 194.675 93.3987C192.524 94.1297 190.226 94.3214 187.983 93.9569C185.74 93.5925 183.621 92.683 181.811 91.3083C179.471 90.5345 177.011 90.1895 174.549 90.2899C166.31 89.7409 158.043 89.7947 149.812 90.4507C144.827 90.9331 140.727 92.4875 135.903 90.2899C118.51 82.2499 113.659 81.3655 73.4589 75.0407C72.0117 74.7995 69.2781 73.7811 67.8845 74.6119C67.1609 75.0139 63.1677 81.0975 63.3553 83.3755C63.8329 85.4912 64.817 87.4593 66.2229 89.1107C79.7569 108.943 100.339 121.271 122.985 129.981C145.631 138.691 170.153 139.924 193.791 138.021C192.345 134.828 191.292 131.471 190.655 128.024C192.263 133.679 200.518 152.439 204.484 156.379C205.556 157.451 205.02 157.022 206.494 156.7C211.854 155.441 212.095 163.829 220.135 154.556C227.693 145.846 234.339 153.056 238.654 150.67C241.683 149.009 241.924 144.212 243.746 141.532C245.018 139.774 246.69 138.344 248.624 137.361C250.558 136.378 252.698 135.869 254.868 135.877C258.968 135.636 264.007 136.654 267.089 133.197C270.171 129.74 270.841 124.567 274.673 121.485C279.417 117.653 284.428 120.681 285.608 113.445C285.715 113.552 291.236 111.971 317.875 109.506H317.741ZM202.501 93.8811C202.152 92.8091 201.777 91.7372 201.402 90.6652C197.168 93.4791 196.525 91.3887 202.608 93.8007L202.501 93.8811ZM326.96 130.544C322.84 123.786 317.898 117.566 312.247 112.025C311.657 111.569 293.326 113.311 293.192 113.392C292.415 113.767 292.576 114.115 292.388 115.107C292.104 117.127 291.347 119.052 290.178 120.724C289.009 122.396 287.461 123.768 285.661 124.728C280.301 127.408 280.301 123.468 275.531 133.143C267.705 148.714 256.262 138.852 250.312 144.882C245.702 149.545 247.418 159.461 233.991 157.719C231.311 157.397 228.47 156.406 226.299 158.255C223.298 160.935 221.368 167.822 211.479 165.276C216.464 172.405 215.177 174.174 216.839 179.99C219.117 188.485 229.596 195.828 238.118 198.75C243.836 200.453 249.891 200.693 255.726 199.446C301.446 191.808 328.89 143.166 329.694 138.289C329.667 135.475 328.706 132.75 326.96 130.544ZM260.979 232.652C274.807 233.858 272.905 234.072 273.682 232.839C274.459 231.606 274.539 230.427 276.12 227.238C266.74 227.801 265.079 230.776 260.898 232.652H260.979ZM494.38 287.645C495.264 275.719 498.587 258.674 484.41 253.636C479.72 251.921 350.866 242.594 350.598 242.621C349.258 242.782 349.499 242.809 349.124 244.497C340.146 284.268 358.396 324.308 388.868 350.893C386.778 353.118 384.634 355.288 382.436 357.432L384.392 358.987C387.072 356.307 389.752 353.627 392.432 350.706C381.833 341.667 372.694 331.045 365.338 319.216C407.271 322.789 449.257 326.166 491.298 329.346L494.38 287.645ZM373.056 366.437C376.058 371.797 361.371 388.252 369.09 388.333C372.198 388.333 376.004 383.589 377.96 381.606C381.492 378.083 384.779 374.322 387.796 370.35C389.109 368.581 390.101 367.188 388.788 365.124C386.871 362.98 384.763 361.016 382.49 359.255C381.337 358.129 381.337 358.585 380.158 359.71C370.698 368.822 373.404 366.116 373.056 366.437ZM56.9769 491.164C191.701 497.972 315.945 506.306 449.168 519.036C464.364 520.484 475.003 519.385 476.397 504.109C478.326 483.151 477.067 494.997 486.822 383.268C457.02 380.32 423.842 377.157 395.22 374.531C392.866 373.992 390.45 373.767 388.037 373.861C386.51 374.209 384.768 377.238 383.588 378.497C380.489 382.103 377.002 385.356 373.19 388.199C369.867 390.45 364.561 391.066 365.445 385.519C366.49 378.953 374.128 371.181 372.252 367.268C363.488 375.549 361.72 372.253 352.045 367.268C320.609 351.128 295.635 324.726 281.266 292.442C273.735 275.237 267.598 254.547 272.69 235.814C224.664 231.928 187.279 227.774 158.066 224.531L88.3865 219.412C66.8125 220.324 57.9417 226.89 53.2785 243.72C46.4445 295.069 47.3557 287.672 46.8733 293.112C51.0005 292.844 288.931 312.676 289.145 312.81C304.751 337.754 327.033 357.826 353.465 370.752C308.977 366.786 43.0677 344.247 42.7997 344.3C41.4061 344.649 42.2637 343.443 41.6205 345.292C41.6205 345.56 35.6709 404.038 33.3661 469.644C32.8033 487.493 40.8969 490.441 56.9769 491.164Z" fill="url(#paint1_linear_1117_1971)"/>
<defs>
<linearGradient id="paint0_linear_1117_1971" x1="505.367" y1="268.232" x2="39.2615" y2="268.232" gradientUnits="userSpaceOnUse">
<stop stop-color="#3A608D"/>
<stop offset="0.5" stop-color="#3F7B8C"/>
<stop offset="1" stop-color="#1B2D4D"/>
</linearGradient>
<linearGradient id="paint1_linear_1117_1971" x1="497.674" y1="267.959" x2="30.6321" y2="267.959" gradientUnits="userSpaceOnUse">
<stop stop-color="#3A608D"/>
<stop offset="0.5" stop-color="#3F7B8C"/>
<stop offset="1" stop-color="#1B2D4D"/>
</linearGradient>
</defs>
</svg>
