<svg width="16" height="16" viewBox="0 0 16 16" fill="none" xmlns="http://www.w3.org/2000/svg">
<g id="add_FILL0_wght400_GRAD0_opsz24 (1) 1">
<path id="Vector" d="M7.33301 8.66658H3.99967C3.81079 8.66658 3.65245 8.6027 3.52467 8.47492C3.3969 8.34714 3.33301 8.18881 3.33301 7.99992C3.33301 7.81103 3.3969 7.6527 3.52467 7.52492C3.65245 7.39714 3.81079 7.33325 3.99967 7.33325H7.33301V3.99992C7.33301 3.81103 7.3969 3.6527 7.52467 3.52492C7.65245 3.39714 7.81079 3.33325 7.99967 3.33325C8.18856 3.33325 8.3469 3.39714 8.47467 3.52492C8.60245 3.6527 8.66634 3.81103 8.66634 3.99992V7.33325H11.9997C12.1886 7.33325 12.3469 7.39714 12.4747 7.52492C12.6025 7.6527 12.6663 7.81103 12.6663 7.99992C12.6663 8.18881 12.6025 8.34714 12.4747 8.47492C12.3469 8.6027 12.1886 8.66658 11.9997 8.66658H8.66634V11.9999C8.66634 12.1888 8.60245 12.3471 8.47467 12.4749C8.3469 12.6027 8.18856 12.6666 7.99967 12.6666C7.81079 12.6666 7.65245 12.6027 7.52467 12.4749C7.3969 12.3471 7.33301 12.1888 7.33301 11.9999V8.66658Z" fill="#262626"/>
</g>
</svg>
