<svg width="20" height="20" viewBox="0 0 20 20" fill="none" xmlns="http://www.w3.org/2000/svg">
    <path d="M2.03906 5.35645H17.9605" stroke="#D32F2F" stroke-width="1.71" stroke-linecap="round" stroke-linejoin="round"/>
    <path d="M4.0293 5.35645H15.9704V17.2975C15.9704 17.6494 15.8305 17.9869 15.5818 18.2357C15.333 18.4845 14.9954 18.6243 14.6436 18.6243H5.35608C5.00419 18.6243 4.66672 18.4845 4.4179 18.2357C4.16909 17.9869 4.0293 17.6494 4.0293 17.2975V5.35645Z" stroke="#D32F2F" stroke-width="1.71" stroke-linecap="round" stroke-linejoin="round"/>
    <path d="M6.68262 5.35633V4.69294C6.68262 3.81323 7.03208 2.96954 7.65413 2.34749C8.27618 1.72544 9.11987 1.37598 9.99958 1.37598C10.8793 1.37598 11.723 1.72544 12.345 2.34749C12.9671 2.96954 13.3165 3.81323 13.3165 4.69294V5.35633" stroke="#D32F2F" stroke-width="1.71" stroke-linecap="round" stroke-linejoin="round"/>
    <path d="M8.00977 9.33862V14.6478" stroke="#D32F2F" stroke-width="1.71" stroke-linecap="round" stroke-linejoin="round"/>
    <path d="M11.9897 9.33862V14.6478" stroke="#D32F2F" stroke-width="1.71" stroke-linecap="round" stroke-linejoin="round"/>
</svg>
