<svg width="32" height="32" viewBox="0 0 32 32" fill="none" xmlns="http://www.w3.org/2000/svg">
<path d="M14.0333 19.0334L10.7666 15.7667C10.5666 15.5667 10.3222 15.4667 10.0333 15.4667C9.7444 15.4667 9.48885 15.5779 9.26663 15.8001C9.06663 16.0001 8.96663 16.2445 8.96663 16.5334C8.96663 16.8223 9.06663 17.0667 9.26663 17.2667L13.3333 21.3667C13.5333 21.5667 13.7666 21.6667 14.0333 21.6667C14.3 21.6667 14.5333 21.5667 14.7333 21.3667L22.7 13.4001C22.9222 13.1779 23.0333 12.9223 23.0333 12.6334C23.0333 12.3445 22.9222 12.089 22.7 11.8667C22.4777 11.6667 22.2166 11.5723 21.9166 11.5834C21.6166 11.5945 21.3666 11.7001 21.1666 11.9001L14.0333 19.0334ZM16 29.3334C14.1777 29.3334 12.4555 28.9834 10.8333 28.2834C9.21107 27.5834 7.7944 26.6279 6.58329 25.4167C5.37218 24.2056 4.41663 22.789 3.71663 21.1667C3.01663 19.5445 2.66663 17.8223 2.66663 16.0001C2.66663 14.1556 3.01663 12.4223 3.71663 10.8001C4.41663 9.17786 5.37218 7.76675 6.58329 6.56675C7.7944 5.36675 9.21107 4.41675 10.8333 3.71675C12.4555 3.01675 14.1777 2.66675 16 2.66675C17.8444 2.66675 19.5777 3.01675 21.2 3.71675C22.8222 4.41675 24.2333 5.36675 25.4333 6.56675C26.6333 7.76675 27.5833 9.17786 28.2833 10.8001C28.9833 12.4223 29.3333 14.1556 29.3333 16.0001C29.3333 17.8223 28.9833 19.5445 28.2833 21.1667C27.5833 22.789 26.6333 24.2056 25.4333 25.4167C24.2333 26.6279 22.8222 27.5834 21.2 28.2834C19.5777 28.9834 17.8444 29.3334 16 29.3334ZM16 27.3334C19.1555 27.3334 21.8333 26.2279 24.0333 24.0167C26.2333 21.8056 27.3333 19.1334 27.3333 16.0001C27.3333 12.8445 26.2333 10.1667 24.0333 7.96675C21.8333 5.76675 19.1555 4.66675 16 4.66675C12.8666 4.66675 10.1944 5.76675 7.98329 7.96675C5.77218 10.1667 4.66663 12.8445 4.66663 16.0001C4.66663 19.1334 5.77218 21.8056 7.98329 24.0167C10.1944 26.2279 12.8666 27.3334 16 27.3334Z" fill="url(#paint0_linear_7210_501)"/>
<defs>
<linearGradient id="paint0_linear_7210_501" x1="2.36531" y1="3.43598" x2="32.2843" y2="7.47525" gradientUnits="userSpaceOnUse">
<stop stop-color="#3A608D"/>
<stop offset="0.5" stop-color="#3F7B8C"/>
<stop offset="1" stop-color="#1B2D4D"/>
</linearGradient>
</defs>
</svg>
