<?xml version="1.0" encoding="utf-8"?>
<!-- Generator: Adobe Illustrator 15.1.0, SVG Export Plug-In  -->
<!DOCTYPE svg PUBLIC "-//W3C//DTD SVG 1.1//EN" "http://www.w3.org/Graphics/SVG/1.1/DTD/svg11.dtd" [
	<!ENTITY ns_flows "http://ns.adobe.com/Flows/1.0/">
]>
<svg version="1.1"
	 xmlns="http://www.w3.org/2000/svg" xmlns:xlink="http://www.w3.org/1999/xlink" xmlns:a="http://ns.adobe.com/AdobeSVGViewerExtensions/3.0/"
	 x="0px" y="0px" width="311px" height="106px" viewBox="0 0 311 106" enable-background="new 0 0 311 106" xml:space="preserve">
<defs>
</defs>
<path fill="#FFFFFF" d="M5.88,101.576c-0.407,0.406-1.095,0.672-1.878,0.672c-0.845,0-1.548-0.203-2.174-1.016v0.92H0.701V91.016
	h1.127v4.334c0.626-0.799,1.329-0.986,2.174-0.986c0.783,0,1.471,0.266,1.878,0.672c0.782,0.783,0.937,2.066,0.937,3.271
	C6.817,99.51,6.662,100.793,5.88,101.576 M3.768,95.363c-1.675,0-1.94,1.441-1.94,2.943c0,1.5,0.265,2.939,1.94,2.939
	c1.673,0,1.923-1.439,1.923-2.939C5.691,96.805,5.441,95.363,3.768,95.363"/>
<path fill="#FFFFFF" d="M9.308,98.604c0,1.689,0.798,2.658,2.27,2.658c0.89,0,1.406-0.266,2.017-0.877l0.766,0.674
	c-0.782,0.783-1.502,1.189-2.814,1.189c-2.035,0-3.365-1.221-3.365-3.941c0-2.488,1.205-3.943,3.16-3.943
	c1.987,0,3.16,1.439,3.16,3.725v0.516H9.308z M13.141,96.477c-0.296-0.705-0.985-1.16-1.799-1.16c-0.813,0-1.502,0.455-1.798,1.16
	c-0.173,0.42-0.204,0.654-0.236,1.281h4.067C13.345,97.131,13.313,96.896,13.141,96.477"/>
<polygon fill="#FFFFFF" points="15.648,102.152 15.648,101.184 19.935,95.459 15.882,95.459 15.882,94.457 21.232,94.457 
	21.232,95.412 16.93,101.152 21.232,101.152 21.232,102.152 "/>
<path fill="#FFFFFF" d="M25.302,105.689c-1.157,0-1.8-0.299-2.614-1.033l0.736-0.719c0.564,0.5,0.955,0.766,1.847,0.766
	c1.486,0,2.111-1.049,2.111-2.361v-1.205c-0.625,0.799-1.33,1-2.158,1c-0.783,0-1.456-0.279-1.861-0.688
	c-0.767-0.766-0.94-1.955-0.94-3.205c0-1.252,0.173-2.441,0.94-3.209c0.405-0.406,1.094-0.672,1.877-0.672
	c0.844,0,1.533,0.188,2.158,1v-0.906h1.11v7.932C28.508,104.297,27.319,105.689,25.302,105.689 M25.476,95.363
	c-1.674,0-1.926,1.441-1.926,2.881c0,1.438,0.252,2.877,1.926,2.877c1.673,0,1.907-1.439,1.907-2.877
	C27.382,96.805,27.148,95.363,25.476,95.363"/>
<path fill="#FFFFFF" d="M35.647,101.371c-0.532,0.531-1.268,0.877-2.207,0.877c-0.937,0-1.673-0.346-2.204-0.877
	c-0.784-0.797-0.94-1.877-0.94-3.064c0-1.189,0.156-2.27,0.94-3.066c0.531-0.531,1.267-0.875,2.204-0.875
	c0.939,0,1.675,0.344,2.207,0.875c0.782,0.797,0.937,1.877,0.937,3.066C36.584,99.494,36.429,100.574,35.647,101.371 M34.849,95.928
	c-0.359-0.361-0.861-0.563-1.409-0.563c-0.546,0-1.031,0.201-1.392,0.563c-0.562,0.564-0.625,1.518-0.625,2.379
	c0,0.859,0.063,1.813,0.625,2.377c0.361,0.359,0.846,0.563,1.392,0.563c0.548,0,1.05-0.203,1.409-0.563
	c0.563-0.564,0.609-1.518,0.609-2.377C35.458,97.445,35.412,96.492,34.849,95.928"/>
<path fill="#FFFFFF" d="M40.531,102.152c-1.314,0-1.971-0.92-1.971-2.063v-4.727h-0.969v-0.859h0.969v-2.408h1.126v2.408h1.643
	v0.859h-1.643v4.693c0,0.703,0.329,1.127,1.048,1.127h0.595v0.969H40.531z"/>
<path fill="#FFFFFF" d="M47.759,101.371c-0.532,0.531-1.267,0.877-2.206,0.877c-0.938,0-1.673-0.346-2.205-0.877
	c-0.783-0.797-0.939-1.877-0.939-3.064c0-1.189,0.156-2.27,0.939-3.068c0.532-0.529,1.267-0.875,2.205-0.875
	c0.939,0,1.674,0.346,2.206,0.875c0.782,0.799,0.938,1.879,0.938,3.068C48.697,99.494,48.542,100.574,47.759,101.371 M46.962,95.928
	c-0.361-0.361-0.861-0.564-1.409-0.564c-0.547,0-1.032,0.203-1.393,0.564c-0.562,0.563-0.625,1.518-0.625,2.379
	c0,0.859,0.063,1.813,0.625,2.377c0.361,0.359,0.846,0.563,1.393,0.563c0.548,0,1.048-0.203,1.409-0.563
	c0.562-0.564,0.608-1.518,0.608-2.377C47.57,97.445,47.524,96.49,46.962,95.928 M45.819,92.861h-1.032l1.376-2.393h1.346
	L45.819,92.861z"/>
<polygon fill="#FFFFFF" points="57.728,102.152 56.68,102.152 54.663,96.178 52.661,102.152 51.612,102.152 49.171,94.457 
	50.392,94.457 52.16,100.635 54.177,94.457 55.147,94.457 57.182,100.635 58.933,94.457 60.154,94.457 "/>
<polygon fill="#FFFFFF" points="66.18,102.152 63.741,98.213 62.24,99.932 62.24,102.152 61.113,102.152 61.113,91.016 
	62.24,91.016 62.24,98.463 65.712,94.457 67.12,94.457 64.507,97.396 67.572,102.152 "/>
<path fill="#FFFFFF" d="M73.505,101.371c-0.532,0.531-1.268,0.877-2.206,0.877c-0.939,0-1.675-0.346-2.205-0.877
	c-0.784-0.797-0.941-1.877-0.941-3.064c0-1.189,0.157-2.27,0.941-3.066c0.53-0.531,1.266-0.875,2.205-0.875
	c0.938,0,1.674,0.344,2.206,0.875c0.782,0.797,0.937,1.877,0.937,3.066C74.442,99.494,74.287,100.574,73.505,101.371 M72.708,95.928
	c-0.36-0.361-0.86-0.563-1.408-0.563c-0.549,0-1.032,0.201-1.393,0.563c-0.562,0.564-0.626,1.518-0.626,2.379
	c0,0.859,0.064,1.813,0.626,2.377c0.361,0.359,0.844,0.563,1.393,0.563c0.548,0,1.048-0.203,1.408-0.563
	c0.563-0.564,0.61-1.518,0.61-2.377C73.317,97.445,73.271,96.492,72.708,95.928"/>
<polygon fill="#FFFFFF" points="83.473,102.152 82.425,102.152 80.408,96.178 78.405,102.152 77.357,102.152 74.916,94.457 
	76.136,94.457 77.905,100.635 79.922,94.457 80.892,94.457 82.927,100.635 84.678,94.457 85.898,94.457 "/>
<path fill="#FFFFFF" d="M91.222,102.152v-0.732c-0.626,0.625-1.189,0.828-2.221,0.828c-1.064,0-1.69-0.203-2.174-0.703
	c-0.375-0.377-0.579-0.955-0.579-1.564c0-1.348,0.938-2.223,2.659-2.223h2.315v-0.736c0-1.125-0.564-1.688-1.971-1.688
	c-0.985,0-1.487,0.232-1.94,0.875l-0.766-0.705c0.687-0.891,1.469-1.141,2.721-1.141c2.067,0,3.082,0.891,3.082,2.566v5.223H91.222z
	 M91.222,98.604h-2.158c-1.159,0-1.721,0.469-1.721,1.361s0.546,1.313,1.767,1.313c0.657,0,1.236-0.045,1.721-0.518
	c0.266-0.25,0.391-0.688,0.391-1.328V98.604z"/>
<polygon fill="#FFFFFF" points="105.055,102.152 104.006,102.152 101.989,96.178 99.986,102.152 98.938,102.152 96.498,94.457 
	97.717,94.457 99.486,100.635 101.503,94.457 102.473,94.457 104.507,100.635 106.259,94.457 107.48,94.457 "/>
<path fill="#FFFFFF" d="M110.348,104.016c-0.157,0.422-0.33,0.705-0.549,0.906c-0.406,0.393-0.954,0.533-1.502,0.533h-0.484v-1.002
	h0.343c0.783,0,1.018-0.25,1.268-0.955l0.548-1.5l-2.77-7.541h1.22l2.112,6.178l2.097-6.178h1.221L110.348,104.016z"/>
<path fill="#FFFFFF" d="M124.695,102.152v-4.738c0-1.361-0.735-2.051-1.893-2.051c-1.126,0-1.925,0.705-1.925,1.926v4.863h-1.127
	v-4.738c0-1.361-0.734-2.051-1.891-2.051c-1.158,0-1.924,0.705-1.924,2.051v4.738h-1.127v-7.695h1.127v0.844
	c0.548-0.625,1.312-0.938,2.174-0.938c1.064,0,1.893,0.438,2.362,1.283c0.595-0.846,1.455-1.283,2.534-1.283
	c0.83,0,1.517,0.266,1.988,0.721c0.546,0.531,0.828,1.25,0.828,2.143v4.926H124.695z"/>
<path fill="#FFFFFF" d="M127.877,91h1.269v1.266h-1.269V91z M127.939,94.457h1.126v7.695h-1.126V94.457z"/>
<path fill="#FFFFFF" d="M135.638,102.152v-0.732c-0.625,0.625-1.189,0.828-2.222,0.828c-1.063,0-1.69-0.203-2.175-0.703
	c-0.376-0.377-0.58-0.955-0.58-1.564c0-1.348,0.939-2.223,2.66-2.223h2.316v-0.736c0-1.125-0.563-1.688-1.972-1.688
	c-0.985,0-1.485,0.232-1.94,0.875l-0.767-0.705c0.688-0.891,1.472-1.141,2.724-1.141c2.063,0,3.08,0.891,3.08,2.566v5.223H135.638z
	 M135.638,98.604h-2.16c-1.158,0-1.72,0.469-1.72,1.361s0.548,1.313,1.767,1.313c0.658,0,1.238-0.045,1.722-0.518
	c0.267-0.25,0.392-0.688,0.392-1.328V98.604z"/>
<path fill="#FFFFFF" d="M143.806,102.152v-4.738c0-1.361-0.736-2.051-1.894-2.051s-1.907,0.705-1.907,2.051v4.738h-1.127v-7.695
	h1.127v0.844c0.547-0.625,1.298-0.938,2.157-0.938c0.829,0,1.503,0.25,1.972,0.721c0.549,0.531,0.799,1.25,0.799,2.143v4.926
	H143.806z"/>
<path fill="#FFFFFF" d="M151.413,102.152v-0.732c-0.627,0.625-1.189,0.828-2.224,0.828c-1.063,0-1.688-0.203-2.173-0.703
	c-0.375-0.377-0.58-0.955-0.58-1.564c0-1.348,0.938-2.223,2.661-2.223h2.315v-0.736c0-1.125-0.564-1.688-1.974-1.688
	c-0.984,0-1.484,0.232-1.938,0.875l-0.768-0.705c0.689-0.891,1.472-1.141,2.723-1.141c2.065,0,3.082,0.891,3.082,2.566v5.223
	H151.413z M151.413,98.604h-2.16c-1.156,0-1.721,0.469-1.721,1.361s0.548,1.313,1.77,1.313c0.654,0,1.234-0.045,1.718-0.518
	c0.269-0.25,0.394-0.688,0.394-1.328V98.604z"/>
<polygon fill="#FFFFFF" points="165.245,102.152 164.198,102.152 162.181,96.178 160.177,102.152 159.13,102.152 156.688,94.457 
	157.909,94.457 159.677,100.635 161.694,94.457 162.665,94.457 164.698,100.635 166.45,94.457 167.671,94.457 "/>
<path fill="#FFFFFF" d="M172.993,102.152v-0.732c-0.625,0.625-1.188,0.828-2.222,0.828c-1.063,0-1.688-0.203-2.175-0.703
	c-0.375-0.377-0.579-0.955-0.579-1.564c0-1.348,0.938-2.223,2.661-2.223h2.314v-0.736c0-1.125-0.563-1.688-1.972-1.688
	c-0.985,0-1.485,0.232-1.938,0.875l-0.766-0.705c0.688-0.891,1.469-1.141,2.721-1.141c2.063,0,3.082,0.891,3.082,2.566v5.223
	H172.993z M172.993,98.604h-2.158c-1.158,0-1.721,0.469-1.721,1.361s0.547,1.313,1.766,1.313c0.66,0,1.238-0.045,1.722-0.518
	c0.267-0.25,0.392-0.688,0.392-1.328V98.604z"/>
<path fill="#FFFFFF" d="M178.159,102.152c-1.346,0-1.955-0.875-1.955-2.047v-9.09h1.125v9.041c0,0.752,0.25,1.127,1.033,1.127h0.609
	v0.969H178.159z"/>
<path fill="#FFFFFF" d="M185.122,102.152v-0.859c-0.547,0.627-1.314,0.955-2.174,0.955c-0.83,0-1.518-0.25-1.988-0.721
	c-0.545-0.531-0.781-1.268-0.781-2.158v-4.912h1.127v4.74c0,1.361,0.718,2.049,1.877,2.049c1.158,0,1.923-0.703,1.923-2.049v-4.74
	h1.125v7.695H185.122z"/>
<path fill="#FFFFFF" d="M190.585,102.152c-1.313,0-1.974-0.92-1.974-2.063v-4.727h-0.968v-0.859h0.968v-2.408h1.128v2.408h1.645
	v0.859h-1.645v4.693c0,0.703,0.327,1.127,1.049,1.127h0.596v0.969H190.585z"/>
<path fill="#FFFFFF" d="M201.212,101.371c-0.533,0.531-1.268,0.877-2.207,0.877c-0.938,0-1.674-0.346-2.205-0.877
	c-0.783-0.797-0.939-1.877-0.939-3.064c0-1.189,0.156-2.27,0.939-3.066c0.531-0.531,1.268-0.875,2.205-0.875
	c0.939,0,1.674,0.344,2.207,0.875c0.781,0.797,0.937,1.877,0.937,3.066C202.148,99.494,201.993,100.574,201.212,101.371
	 M200.413,95.928c-0.359-0.361-0.861-0.563-1.408-0.563s-1.033,0.201-1.393,0.563c-0.563,0.564-0.625,1.518-0.625,2.379
	c0,0.859,0.063,1.813,0.625,2.377c0.359,0.359,0.846,0.563,1.393,0.563s1.049-0.203,1.408-0.563
	c0.563-0.564,0.608-1.518,0.608-2.377C201.021,97.445,200.976,96.492,200.413,95.928"/>
<path fill="#FFFFFF" d="M208.862,102.152v-4.738c0-1.361-0.734-2.051-1.894-2.051c-1.157,0-1.907,0.705-1.907,2.051v4.738h-1.127
	v-7.695h1.127v0.844c0.547-0.625,1.299-0.938,2.157-0.938c0.83,0,1.502,0.25,1.972,0.721c0.549,0.531,0.799,1.25,0.799,2.143v4.926
	H208.862z"/>
<path fill="#FFFFFF" d="M214.03,102.152c-1.346,0-1.957-0.875-1.957-2.047v-9.09h1.127v9.041c0,0.752,0.25,1.127,1.031,1.127h0.611
	v0.969H214.03z"/>
<path fill="#FFFFFF" d="M216.065,91h1.268v1.266h-1.268V91z M216.128,94.457h1.125v7.695h-1.125V94.457z"/>
<path fill="#FFFFFF" d="M224.388,102.152v-4.738c0-1.361-0.736-2.051-1.894-2.051c-1.155,0-1.908,0.705-1.908,2.051v4.738h-1.127
	v-7.695h1.127v0.844c0.548-0.625,1.298-0.938,2.158-0.938c0.83,0,1.502,0.25,1.972,0.721c0.549,0.531,0.799,1.25,0.799,2.143v4.926
	H224.388z"/>
<path fill="#FFFFFF" d="M228.333,98.604c0,1.689,0.799,2.658,2.27,2.658c0.891,0,1.408-0.266,2.018-0.877l0.768,0.674
	c-0.783,0.783-1.502,1.189-2.817,1.189c-2.034,0-3.362-1.221-3.362-3.941c0-2.488,1.203-3.943,3.16-3.943
	c1.986,0,3.157,1.439,3.157,3.725v0.516H228.333z M232.167,96.477c-0.297-0.705-0.986-1.16-1.799-1.16
	c-0.814,0-1.503,0.455-1.802,1.16c-0.171,0.42-0.201,0.654-0.233,1.281h4.067C232.37,97.131,232.339,96.896,232.167,96.477"/>
<rect x="1.506" y="44.935" fill="#FFFFFF" width="3.808" height="35.985"/>
<path fill="#FFFFFF" d="M37.714,58.598c0-6.942-3.435-10.75-9.93-10.75c-6.493,0-10.152,3.882-10.152,10.75V80.92h-3.807V44.935
	h3.807v4.255c2.686-3.134,6.197-4.702,10.601-4.702c3.956,0,7.166,1.119,9.555,3.433c2.464,2.389,3.733,5.748,3.733,10.004V80.92
	h-3.807V58.598z"/>
<polygon fill="#FFFFFF" points="71.156,80.92 61.602,64.719 57.497,69.348 57.497,80.92 47.792,80.92 47.792,27.766 57.497,27.766 
	57.497,57.926 70.411,42.024 82.131,42.024 68.245,57.701 83.176,80.92 "/>
<path fill="#FFFFFF" d="M103.483,80.92v-3.361c-2.613,2.611-5.077,3.732-9.557,3.732c-4.403,0-7.614-1.121-9.927-3.434
	c-2.092-2.164-3.211-5.301-3.211-8.734c0-6.196,4.255-11.273,13.288-11.273h9.183V55.91c0-4.254-2.091-6.123-7.241-6.123
	c-3.733,0-5.45,0.896-7.467,3.21l-6.196-6.046c3.808-4.18,7.541-5.375,14.035-5.375c10.9,0,16.573,4.628,16.573,13.735V80.92
	H103.483z M103.259,64.494h-7.688c-3.511,0-5.451,1.644-5.451,4.404c0,2.688,1.792,4.479,5.598,4.479
	c2.688,0,4.405-0.223,6.123-1.864c1.043-0.972,1.418-2.539,1.418-4.927V64.494z"/>
<path fill="#FFFFFF" d="M140.063,80.92V57.401c0-5.299-3.36-7.091-6.42-7.091c-3.062,0-6.495,1.792-6.495,7.091V80.92h-9.706V42.024
	h9.482v3.582c2.538-2.685,6.122-4.03,9.704-4.03c3.883,0,7.018,1.269,9.184,3.435c3.135,3.135,3.956,6.793,3.956,11.048v24.86
	H140.063z"/>
<path fill="#FFFFFF" d="M166.415,80.92c-7.912,0-11.271-5.602-11.271-11.125V50.536h-4.105v-7.39h4.105V31.648h9.705v11.497h6.867
	v7.39h-6.867v18.661c0,2.241,1.045,3.509,3.359,3.509h3.508v8.215H166.415z"/>
<path fill="#FFFFFF" d="M201.204,76.589c-2.387,2.536-6.344,4.778-12.092,4.778c-5.75,0-9.632-2.242-12.021-4.778
	c-3.508-3.66-4.405-8.063-4.405-15.155c0-7.017,0.897-11.423,4.405-15.08c2.39-2.537,6.271-4.777,12.021-4.777
	c5.748,0,9.705,2.24,12.092,4.777c3.51,3.657,4.403,8.063,4.403,15.08C205.607,68.525,204.714,72.929,201.204,76.589
	 M193.663,52.029c-1.119-1.121-2.611-1.718-4.551-1.718c-1.943,0-3.361,0.597-4.48,1.718c-2.016,2.014-2.24,5.374-2.24,9.405
	c0,4.033,0.225,7.465,2.24,9.481c1.119,1.118,2.537,1.717,4.48,1.717c1.939,0,3.432-0.599,4.551-1.717
	c2.018-2.017,2.242-5.448,2.242-9.481C195.905,57.402,195.681,54.043,193.663,52.029"/>
<path fill="#FFFFFF" d="M230.021,52.625c-1.492-1.493-2.762-2.314-5.148-2.314c-2.988,0-6.271,2.24-6.271,7.166V80.92h-9.705V42.024
	h9.479v3.732c1.866-2.239,5.601-4.18,9.782-4.18c3.806,0,6.492,0.971,9.179,3.658L230.021,52.625z"/>
<path fill="#FFFFFF" d="M253.454,79.893c-0.984,0.982-2.636,1.652-4.64,1.652c-2.164,0-3.933-0.471-5.623-2.674v11.48h-2.006V62.359
	h2.006v2.436c1.69-2.199,3.459-2.673,5.623-2.673c2.004,0,3.655,0.669,4.64,1.651c1.926,1.927,2.438,5.074,2.438,8.06
	C255.892,74.822,255.38,77.967,253.454,79.893 M248.54,63.893c-4.642,0-5.349,4.01-5.349,7.94c0,3.933,0.707,7.942,5.349,7.942
	c4.639,0,5.346-4.01,5.346-7.942C253.886,67.902,253.179,63.893,248.54,63.893"/>
<path fill="#FFFFFF" d="M259.192,76.395V53.316h2.004v23.04c0,2.162,0.668,3.186,2.91,3.186h1.375v1.768h-1.729
	C260.646,81.309,259.192,79.383,259.192,76.395"/>
<path fill="#9CC848" d="M277.144,52c-7.593-14.511-20.595-22.068-23.019-23.359c2.42,1.589,15.394,10.839,22.922,28.785
	l33.515,0.576c-0.949-1.795-2.058-4.044-3.183-5.478L277.144,52z"/>
<path fill="#9CC848" d="M277.313,42.13c-6.625-7.129-18.875-12.005-23.188-13.49c4.306,2.069,16.524,8.569,23.099,18.585
	l33.516,0.579c-1.231-1.872-2.553-3.587-3.91-5.162L277.313,42.13z"/>
<path fill="#9CC848" d="M254.11,28.638c2.746,0.568,15.67,3.499,23.284,8.779L310.907,38c0,0-10.209-7.859-23.793-8.093
	l-32.978-1.27L254.11,28.638z"/>
<path fill="#9CC848" d="M232.862,6.003c7.592,14.512,20.594,22.069,23.018,23.359c-2.42-1.588-15.393-10.839-22.922-28.785
	L199.444,0c0.947,1.795,2.055,4.046,3.18,5.48L232.862,6.003z"/>
<path fill="#9CC848" d="M232.694,15.872c6.625,7.131,18.871,12.006,23.186,13.49c-4.305-2.069-16.523-8.569-23.1-18.584
	l-33.517-0.579c1.233,1.871,2.554,3.586,3.912,5.161L232.694,15.872z"/>
<path fill="#9CC848" d="M255.894,29.365c-2.744-0.568-15.668-3.499-23.283-8.779l-33.512-0.583c0,0,10.209,7.859,23.791,8.093
	l32.979,1.27L255.894,29.365z"/>
<path fill="#FFFFFF" d="M233.773,76.562c0,1.091-0.378,2.003-1.134,2.739c-0.795,0.773-1.719,1.158-2.773,1.158
	c-1.068,0-1.982-0.387-2.744-1.164c-0.763-0.773-1.143-1.686-1.143-2.733c0-1.062,0.393-1.993,1.18-2.795
	c0.729-0.735,1.631-1.103,2.707-1.103c1.098,0,2.023,0.384,2.777,1.152C233.397,74.586,233.773,75.5,233.773,76.562 M233.257,76.596
	c0-0.961-0.322-1.766-0.965-2.416c-0.664-0.671-1.472-1.007-2.414-1.007c-0.939,0-1.728,0.321-2.363,0.964
	c-0.684,0.699-1.028,1.509-1.028,2.425c0,0.903,0.33,1.692,0.993,2.366c0.66,0.676,1.449,1.014,2.363,1.014
	c0.933,0,1.74-0.334,2.428-0.998C232.927,78.309,233.257,77.525,233.257,76.596 M231.814,75.488c0,0.659-0.335,1.057-1.005,1.192
	l0.984,2.015h-0.933l-0.897-1.886h-0.824v1.886h-0.832v-4.418h1.666C231.202,74.277,231.814,74.681,231.814,75.488 M230.96,75.576
	c0-0.506-0.379-0.758-1.137-0.758h-0.684v1.461h0.703C230.589,76.279,230.96,76.046,230.96,75.576"/>
<path fill="#FFFFFF" d="M6.82,31.02c0,1.882-1.528,3.41-3.41,3.41S0,32.902,0,31.02s1.528-3.41,3.41-3.41S6.82,29.138,6.82,31.02"/>
</svg>
